solid OpenSCAD_Model
  facet normal -3.31454e-17 0.62852 0.777793
    outer loop
      vertex -3.11973e-15 4.95 19
      vertex 10 4.95 19
      vertex 10 9.9 15
    endloop
  endfacet
  facet normal -3.31454e-17 0.62852 0.777793
    outer loop
      vertex -1.13243e-15 9.9 15
      vertex -3.11973e-15 4.95 19
      vertex 10 9.9 15
    endloop
  endfacet
  facet normal -1 2.22045e-16 -2.22045e-16
    outer loop
      vertex -3.33067e-15 0 15
      vertex -3.11973e-15 4.95 19
      vertex 0 0 0
    endloop
  endfacet
  facet normal -1 2.22045e-16 -2.22045e-16
    outer loop
      vertex 0 0 0
      vertex -3.11973e-15 4.95 19
      vertex -1.13243e-15 9.9 15
    endloop
  endfacet
  facet normal -1 2.22045e-16 -2.22045e-16
    outer loop
      vertex 0 0 0
      vertex -1.13243e-15 9.9 15
      vertex 4.44089e-17 9.9 9.7
    endloop
  endfacet
  facet normal -1 2.22045e-16 -2.22045e-16
    outer loop
      vertex 0 0 0
      vertex 4.44089e-17 9.9 9.7
      vertex 2.06501e-15 19 9.7
    endloop
  endfacet
  facet normal -1 2.22045e-16 -2.22045e-16
    outer loop
      vertex 0 0 0
      vertex 2.06501e-15 19 9.7
      vertex 4.21885e-15 19 0
    endloop
  endfacet
  facet normal 2.22045e-16 1 4.93038e-32
    outer loop
      vertex -1.13243e-15 9.9 15
      vertex 10 9.9 15
      vertex 4.44089e-17 9.9 9.7
    endloop
  endfacet
  facet normal 2.22045e-16 1 4.93038e-32
    outer loop
      vertex 4.44089e-17 9.9 9.7
      vertex 10 9.9 15
      vertex 10 9.9 9.7
    endloop
  endfacet
  facet normal -3.12264e-16 -0.62852 0.777793
    outer loop
      vertex -3.33067e-15 0 15
      vertex 10 -2.22045e-15 15
      vertex 10 4.95 19
    endloop
  endfacet
  facet normal -3.12264e-16 -0.62852 0.777793
    outer loop
      vertex -3.11973e-15 4.95 19
      vertex -3.33067e-15 0 15
      vertex 10 4.95 19
    endloop
  endfacet
  facet normal 1 -2.22045e-16 2.22045e-16
    outer loop
      vertex 10 -2.22045e-15 2.22045e-15
      vertex 10 19 2.22045e-15
      vertex 10 19 9.7
    endloop
  endfacet
  facet normal 1 -2.22045e-16 2.22045e-16
    outer loop
      vertex 10 9.9 15
      vertex 10 -2.22045e-15 2.22045e-15
      vertex 10 9.9 9.7
    endloop
  endfacet
  facet normal 1 -2.22045e-16 2.22045e-16
    outer loop
      vertex 10 9.9 9.7
      vertex 10 -2.22045e-15 2.22045e-15
      vertex 10 19 9.7
    endloop
  endfacet
  facet normal 1 -2.22045e-16 2.22045e-16
    outer loop
      vertex 10 4.95 19
      vertex 10 -2.22045e-15 2.22045e-15
      vertex 10 9.9 15
    endloop
  endfacet
  facet normal 1 -2.22045e-16 2.22045e-16
    outer loop
      vertex 10 -2.22045e-15 15
      vertex 10 -2.22045e-15 2.22045e-15
      vertex 10 4.95 19
    endloop
  endfacet
  facet normal 2.22045e-16 -4.93038e-32 -1
    outer loop
      vertex 4.21885e-15 19 0
      vertex 10 19 2.22045e-15
      vertex 0 0 0
    endloop
  endfacet
  facet normal 2.22045e-16 -4.93038e-32 -1
    outer loop
      vertex 0 0 0
      vertex 10 19 2.22045e-15
      vertex 10 -2.22045e-15 2.22045e-15
    endloop
  endfacet
  facet normal -2.22045e-16 -1 -4.93038e-32
    outer loop
      vertex 0 0 0
      vertex 10 -2.22045e-15 2.22045e-15
      vertex 10 -2.22045e-15 15
    endloop
  endfacet
  facet normal -2.22045e-16 -1 -4.93038e-32
    outer loop
      vertex -3.33067e-15 0 15
      vertex 0 0 0
      vertex 10 -2.22045e-15 15
    endloop
  endfacet
  facet normal 2.22045e-16 1 4.93038e-32
    outer loop
      vertex 2.06501e-15 19 9.7
      vertex 10 19 9.7
      vertex 4.21885e-15 19 0
    endloop
  endfacet
  facet normal 2.22045e-16 1 4.93038e-32
    outer loop
      vertex 4.21885e-15 19 0
      vertex 10 19 9.7
      vertex 10 19 2.22045e-15
    endloop
  endfacet
  facet normal -2.22045e-16 4.93038e-32 1
    outer loop
      vertex 4.44089e-17 9.9 9.7
      vertex 10 9.9 9.7
      vertex 10 19 9.7
    endloop
  endfacet
  facet normal -2.22045e-16 4.93038e-32 1
    outer loop
      vertex 2.06501e-15 19 9.7
      vertex 4.44089e-17 9.9 9.7
      vertex 10 19 9.7
    endloop
  endfacet
endsolid OpenSCAD_Model
