solid OpenSCAD_Model
  facet normal -1 0 0
    outer loop
      vertex 0 0 0
      vertex 0 0 5
      vertex 0 5 0
    endloop
  endfacet
  facet normal -1 0 0
    outer loop
      vertex 0 5 0
      vertex 0 0 5
      vertex 0 5 5
    endloop
  endfacet
  facet normal 0 -1 0
    outer loop
      vertex 0 0 5
      vertex 0 0 0
      vertex 25.2 0 0
    endloop
  endfacet
  facet normal 0 -1 0
    outer loop
      vertex 25.2 0 5
      vertex 0 0 5
      vertex 25.2 0 0
    endloop
  endfacet
  facet normal 0 0 -1
    outer loop
      vertex 0 0 0
      vertex 0 5 0
      vertex 25.2 0 0
    endloop
  endfacet
  facet normal 0 0 -1
    outer loop
      vertex 25.2 0 0
      vertex 0 5 0
      vertex 25.2 5 0
    endloop
  endfacet
  facet normal 0 1 0
    outer loop
      vertex 0 5 0
      vertex 0 5 5
      vertex 25.2 5 0
    endloop
  endfacet
  facet normal 0 1 0
    outer loop
      vertex 25.2 5 0
      vertex 0 5 5
      vertex 25.2 5 5
    endloop
  endfacet
  facet normal 0 0 1
    outer loop
      vertex 0 5 5
      vertex 0 0 5
      vertex 25.2 0 5
    endloop
  endfacet
  facet normal 0 0 1
    outer loop
      vertex 25.2 5 5
      vertex 0 5 5
      vertex 25.2 0 5
    endloop
  endfacet
  facet normal 1 0 0
    outer loop
      vertex 25.2 0 5
      vertex 25.2 0 0
      vertex 25.2 5 0
    endloop
  endfacet
  facet normal 1 0 0
    outer loop
      vertex 25.2 5 5
      vertex 25.2 0 5
      vertex 25.2 5 0
    endloop
  endfacet
  facet normal -2.22045e-16 -1 -4.93038e-32
    outer loop
      vertex 14 10 7
      vertex -1.55431e-15 10 7
      vertex 0 10 0
    endloop
  endfacet
  facet normal -2.22045e-16 -1 -4.93038e-32
    outer loop
      vertex 14 10 3.10862e-15
      vertex 14 10 7
      vertex 0 10 0
    endloop
  endfacet
  facet normal -1 2.22045e-16 -2.22045e-16
    outer loop
      vertex -1.55431e-15 10 7
      vertex -1.44329e-15 15 11.5
      vertex 0 10 0
    endloop
  endfacet
  facet normal -1 2.22045e-16 -2.22045e-16
    outer loop
      vertex 0 10 0
      vertex -1.44329e-15 15 11.5
      vertex 6.66134e-16 20 7
    endloop
  endfacet
  facet normal -1 2.22045e-16 -2.22045e-16
    outer loop
      vertex 0 10 0
      vertex 6.66134e-16 20 7
      vertex 2.22045e-15 20 0
    endloop
  endfacet
  facet normal -3.13584e-16 -0.668965 0.743294
    outer loop
      vertex -1.44329e-15 15 11.5
      vertex -1.55431e-15 10 7
      vertex 14 10 7
    endloop
  endfacet
  facet normal -3.13584e-16 -0.668965 0.743294
    outer loop
      vertex 14 15 11.5
      vertex -1.44329e-15 15 11.5
      vertex 14 10 7
    endloop
  endfacet
  facet normal 1 -2.22045e-16 2.22045e-16
    outer loop
      vertex 14 15 11.5
      vertex 14 10 7
      vertex 14 10 3.10862e-15
    endloop
  endfacet
  facet normal 1 -2.22045e-16 2.22045e-16
    outer loop
      vertex 14 20 7
      vertex 14 15 11.5
      vertex 14 20 3.10862e-15
    endloop
  endfacet
  facet normal 1 -2.22045e-16 2.22045e-16
    outer loop
      vertex 14 20 3.10862e-15
      vertex 14 15 11.5
      vertex 14 10 3.10862e-15
    endloop
  endfacet
  facet normal 2.22045e-16 -4.93038e-32 -1
    outer loop
      vertex 0 10 0
      vertex 2.22045e-15 20 0
      vertex 14 10 3.10862e-15
    endloop
  endfacet
  facet normal 2.22045e-16 -4.93038e-32 -1
    outer loop
      vertex 14 10 3.10862e-15
      vertex 2.22045e-15 20 0
      vertex 14 20 3.10862e-15
    endloop
  endfacet
  facet normal 2.22045e-16 1 4.93038e-32
    outer loop
      vertex 6.66134e-16 20 7
      vertex 14 20 7
      vertex 2.22045e-15 20 0
    endloop
  endfacet
  facet normal 2.22045e-16 1 4.93038e-32
    outer loop
      vertex 2.22045e-15 20 0
      vertex 14 20 7
      vertex 14 20 3.10862e-15
    endloop
  endfacet
  facet normal -1.65044e-17 0.668965 0.743294
    outer loop
      vertex 6.66134e-16 20 7
      vertex -1.44329e-15 15 11.5
      vertex 14 15 11.5
    endloop
  endfacet
  facet normal -1.65044e-17 0.668965 0.743294
    outer loop
      vertex 14 20 7
      vertex 6.66134e-16 20 7
      vertex 14 15 11.5
    endloop
  endfacet
  facet normal -2.22045e-16 -1 -4.93038e-32
    outer loop
      vertex 10 25 15
      vertex -3.33067e-15 25 15
      vertex 0 25 0
    endloop
  endfacet
  facet normal -2.22045e-16 -1 -4.93038e-32
    outer loop
      vertex 10 25 2.22045e-15
      vertex 10 25 15
      vertex 0 25 0
    endloop
  endfacet
  facet normal -1 2.22045e-16 -2.22045e-16
    outer loop
      vertex -3.33067e-15 25 15
      vertex -3.11973e-15 29.95 19
      vertex 0 25 0
    endloop
  endfacet
  facet normal -1 2.22045e-16 -2.22045e-16
    outer loop
      vertex 0 25 0
      vertex -3.11973e-15 29.95 19
      vertex -1.13243e-15 34.9 15
    endloop
  endfacet
  facet normal -1 2.22045e-16 -2.22045e-16
    outer loop
      vertex 0 25 0
      vertex -1.13243e-15 34.9 15
      vertex 4.44089e-17 34.9 9.7
    endloop
  endfacet
  facet normal -1 2.22045e-16 -2.22045e-16
    outer loop
      vertex 0 25 0
      vertex 4.44089e-17 34.9 9.7
      vertex 2.06501e-15 44 9.7
    endloop
  endfacet
  facet normal -1 2.22045e-16 -2.22045e-16
    outer loop
      vertex 0 25 0
      vertex 2.06501e-15 44 9.7
      vertex 4.21885e-15 44 0
    endloop
  endfacet
  facet normal -3.12264e-16 -0.62852 0.777793
    outer loop
      vertex -3.11973e-15 29.95 19
      vertex -3.33067e-15 25 15
      vertex 10 25 15
    endloop
  endfacet
  facet normal -3.12264e-16 -0.62852 0.777793
    outer loop
      vertex 10 29.95 19
      vertex -3.11973e-15 29.95 19
      vertex 10 25 15
    endloop
  endfacet
  facet normal 1 -2.22045e-16 2.22045e-16
    outer loop
      vertex 10 29.95 19
      vertex 10 25 15
      vertex 10 25 2.22045e-15
    endloop
  endfacet
  facet normal 1 -2.22045e-16 2.22045e-16
    outer loop
      vertex 10 34.9 9.7
      vertex 10 29.95 19
      vertex 10 25 2.22045e-15
    endloop
  endfacet
  facet normal 1 -2.22045e-16 2.22045e-16
    outer loop
      vertex 10 44 2.22045e-15
      vertex 10 34.9 9.7
      vertex 10 25 2.22045e-15
    endloop
  endfacet
  facet normal 1 -2.22045e-16 2.22045e-16
    outer loop
      vertex 10 34.9 9.7
      vertex 10 34.9 15
      vertex 10 29.95 19
    endloop
  endfacet
  facet normal 1 -2.22045e-16 2.22045e-16
    outer loop
      vertex 10 44 9.7
      vertex 10 34.9 9.7
      vertex 10 44 2.22045e-15
    endloop
  endfacet
  facet normal 2.22045e-16 -4.93038e-32 -1
    outer loop
      vertex 0 25 0
      vertex 4.21885e-15 44 0
      vertex 10 25 2.22045e-15
    endloop
  endfacet
  facet normal 2.22045e-16 -4.93038e-32 -1
    outer loop
      vertex 10 25 2.22045e-15
      vertex 4.21885e-15 44 0
      vertex 10 44 2.22045e-15
    endloop
  endfacet
  facet normal 2.22045e-16 1 4.93038e-32
    outer loop
      vertex 2.06501e-15 44 9.7
      vertex 10 44 9.7
      vertex 4.21885e-15 44 0
    endloop
  endfacet
  facet normal 2.22045e-16 1 4.93038e-32
    outer loop
      vertex 4.21885e-15 44 0
      vertex 10 44 9.7
      vertex 10 44 2.22045e-15
    endloop
  endfacet
  facet normal -2.22045e-16 4.93038e-32 1
    outer loop
      vertex 2.06501e-15 44 9.7
      vertex 4.44089e-17 34.9 9.7
      vertex 10 34.9 9.7
    endloop
  endfacet
  facet normal -2.22045e-16 4.93038e-32 1
    outer loop
      vertex 10 44 9.7
      vertex 2.06501e-15 44 9.7
      vertex 10 34.9 9.7
    endloop
  endfacet
  facet normal 2.22045e-16 1 4.93038e-32
    outer loop
      vertex -1.13243e-15 34.9 15
      vertex 10 34.9 15
      vertex 4.44089e-17 34.9 9.7
    endloop
  endfacet
  facet normal 2.22045e-16 1 4.93038e-32
    outer loop
      vertex 4.44089e-17 34.9 9.7
      vertex 10 34.9 15
      vertex 10 34.9 9.7
    endloop
  endfacet
  facet normal -3.31454e-17 0.62852 0.777793
    outer loop
      vertex -1.13243e-15 34.9 15
      vertex -3.11973e-15 29.95 19
      vertex 10 29.95 19
    endloop
  endfacet
  facet normal -3.31454e-17 0.62852 0.777793
    outer loop
      vertex 10 34.9 15
      vertex -1.13243e-15 34.9 15
      vertex 10 29.95 19
    endloop
  endfacet
endsolid OpenSCAD_Model
