solid OpenSCAD_Model
  facet normal -1.65044e-17 0.668965 0.743294
    outer loop
      vertex -1.44329e-15 5 11.5
      vertex 14 5 11.5
      vertex 14 10 7
    endloop
  endfacet
  facet normal -1.65044e-17 0.668965 0.743294
    outer loop
      vertex 6.66134e-16 10 7
      vertex -1.44329e-15 5 11.5
      vertex 14 10 7
    endloop
  endfacet
  facet normal -1 2.22045e-16 -2.22045e-16
    outer loop
      vertex -1.55431e-15 0 7
      vertex -1.44329e-15 5 11.5
      vertex 0 0 0
    endloop
  endfacet
  facet normal -1 2.22045e-16 -2.22045e-16
    outer loop
      vertex 0 0 0
      vertex -1.44329e-15 5 11.5
      vertex 6.66134e-16 10 7
    endloop
  endfacet
  facet normal -1 2.22045e-16 -2.22045e-16
    outer loop
      vertex 0 0 0
      vertex 6.66134e-16 10 7
      vertex 2.22045e-15 10 0
    endloop
  endfacet
  facet normal 2.22045e-16 1 4.93038e-32
    outer loop
      vertex 6.66134e-16 10 7
      vertex 14 10 7
      vertex 2.22045e-15 10 0
    endloop
  endfacet
  facet normal 2.22045e-16 1 4.93038e-32
    outer loop
      vertex 2.22045e-15 10 0
      vertex 14 10 7
      vertex 14 10 3.10862e-15
    endloop
  endfacet
  facet normal -3.13584e-16 -0.668965 0.743294
    outer loop
      vertex -1.55431e-15 0 7
      vertex 14 -3.10862e-15 7
      vertex 14 5 11.5
    endloop
  endfacet
  facet normal -3.13584e-16 -0.668965 0.743294
    outer loop
      vertex -1.44329e-15 5 11.5
      vertex -1.55431e-15 0 7
      vertex 14 5 11.5
    endloop
  endfacet
  facet normal 1 -2.22045e-16 2.22045e-16
    outer loop
      vertex 14 -3.10862e-15 3.10862e-15
      vertex 14 10 3.10862e-15
      vertex 14 10 7
    endloop
  endfacet
  facet normal 1 -2.22045e-16 2.22045e-16
    outer loop
      vertex 14 -3.10862e-15 7
      vertex 14 -3.10862e-15 3.10862e-15
      vertex 14 5 11.5
    endloop
  endfacet
  facet normal 1 -2.22045e-16 2.22045e-16
    outer loop
      vertex 14 5 11.5
      vertex 14 -3.10862e-15 3.10862e-15
      vertex 14 10 7
    endloop
  endfacet
  facet normal 2.22045e-16 -4.93038e-32 -1
    outer loop
      vertex 2.22045e-15 10 0
      vertex 14 10 3.10862e-15
      vertex 0 0 0
    endloop
  endfacet
  facet normal 2.22045e-16 -4.93038e-32 -1
    outer loop
      vertex 0 0 0
      vertex 14 10 3.10862e-15
      vertex 14 -3.10862e-15 3.10862e-15
    endloop
  endfacet
  facet normal -2.22045e-16 -1 -4.93038e-32
    outer loop
      vertex 0 0 0
      vertex 14 -3.10862e-15 3.10862e-15
      vertex 14 -3.10862e-15 7
    endloop
  endfacet
  facet normal -2.22045e-16 -1 -4.93038e-32
    outer loop
      vertex -1.55431e-15 0 7
      vertex 0 0 0
      vertex 14 -3.10862e-15 7
    endloop
  endfacet
endsolid OpenSCAD_Model
