solid settlership
facet normal 0.0 0.0 -1.0
  outer loop
    vertex 0.4771030748340636 -3.8444322356250327 5.6399329810033115e-15
    vertex 1.587448512345402 -4.3904324752207495 5.6399329810033115e-15
    vertex 0.47370607253933744 -4.390432475220752 5.6399329810033115e-15
  endloop
endfacet
facet normal 0.0 0.0 -1.0
  outer loop
    vertex 1.587448512345402 -4.3904324752207495 5.6399329810033115e-15
    vertex 0.4771030748340636 -3.8444322356250327 5.6399329810033115e-15
    vertex 0.5517383475288969 -3.3035465015434653 5.6399329810033115e-15
  endloop
endfacet
facet normal 0.0 0.0 -1.0
  outer loop
    vertex 1.587448512345402 -4.3904324752207495 5.6399329810033115e-15
    vertex 0.5517383475288969 -3.3035465015434653 5.6399329810033115e-15
    vertex 0.6963348604152405 -2.777029977848056 5.6399329810033115e-15
  endloop
endfacet
facet normal 0.0 0.0 -1.0
  outer loop
    vertex 1.587448512345402 -4.3904324752207495 5.6399329810033115e-15
    vertex 0.6963348604152405 -2.777029977848056 5.6399329810033115e-15
    vertex 0.9084185270678966 -2.2738915082372015 5.6399329810033115e-15
  endloop
endfacet
facet normal 0.0 0.0 -1.0
  outer loop
    vertex 1.587448512345402 -4.3904324752207495 5.6399329810033115e-15
    vertex 0.9084185270678966 -2.2738915082372015 5.6399329810033115e-15
    vertex 1.1843605371496937 -1.8027399314222652 5.6399329810033115e-15
  endloop
endfacet
facet normal 0.0 0.0 -1.0
  outer loop
    vertex 1.587448512345402 -4.3904324752207495 5.6399329810033115e-15
    vertex 1.1843605371496937 -1.8027399314222652 5.6399329810033115e-15
    vertex 1.5194394463625995 -1.3716367815104622 5.6399329810033115e-15
  endloop
endfacet
facet normal 0.0 0.0 -1.0
  outer loop
    vertex 1.587448512345402 -4.3904324752207495 5.6399329810033115e-15
    vertex 1.5194394463625995 -1.3716367815104622 5.6399329810033115e-15
    vertex 1.9079219616685184 -0.9879583529211445 5.6399329810033115e-15
  endloop
endfacet
facet normal 0.0 0.0 -1.0
  outer loop
    vertex 1.587448512345402 -4.3904324752207495 5.6399329810033115e-15
    vertex 1.9079219616685184 -0.9879583529211445 5.6399329810033115e-15
    vertex 7.199542512345407 -4.3904324752207495 5.6399329810033115e-15
  endloop
endfacet
facet normal 0.0 0.0 -1.0
  outer loop
    vertex 7.199542512345407 -4.3904324752207495 5.6399329810033115e-15
    vertex 1.9079219616685184 -0.9879583529211445 5.6399329810033115e-15
    vertex 2.3431610395228923 -0.6582694899432403 5.6399329810033115e-15
  endloop
endfacet
facet normal 0.0 0.0 -1.0
  outer loop
    vertex 7.199542512345407 -4.3904324752207495 5.6399329810033115e-15
    vertex 2.3431610395228923 -0.6582694899432403 5.6399329810033115e-15
    vertex 2.8177096186325428 -0.3882112604293194 5.6399329810033115e-15
  endloop
endfacet
facet normal 0.0 0.0 -1.0
  outer loop
    vertex 7.199542512345407 -4.3904324752207495 5.6399329810033115e-15
    vertex 2.8177096186325428 -0.3882112604293194 5.6399329810033115e-15
    vertex 3.3234480412391876 -0.1824044355606511 5.6399329810033115e-15
  endloop
endfacet
facet normal 0.0 0.0 -1.0
  outer loop
    vertex 7.199542512345407 -4.3904324752207495 5.6399329810033115e-15
    vertex 3.3234480412391876 -0.1824044355606511 5.6399329810033115e-15
    vertex 3.8517229827148616 -0.04437042717116863 5.6399329810033115e-15
  endloop
endfacet
facet normal 0.0 0.0 -1.0
  outer loop
    vertex 7.199542512345407 -4.3904324752207495 5.6399329810033115e-15
    vertex 3.8517229827148616 -0.04437042717116863 5.6399329810033115e-15
    vertex 4.0245178382690545 0.0016494486521352934 5.6399329810033115e-15
  endloop
endfacet
facet normal 0.0 0.0 -1.0
  outer loop
    vertex 7.199542512345407 -4.3904324752207495 5.6399329810033115e-15
    vertex 4.0245178382690545 0.0016494486521352934 5.6399329810033115e-15
    vertex 4.393495512345404 0.02352896458531778 5.6399329810033115e-15
  endloop
endfacet
facet normal 0.0 0.0 -1.0
  outer loop
    vertex 7.199542512345407 -4.3904324752207495 5.6399329810033115e-15
    vertex 4.393495512345404 0.02352896458531778 5.6399329810033115e-15
    vertex 15.159243354202225 0.0235289645853206 5.6399329810033115e-15
  endloop
endfacet
facet normal 0.0 0.0 -1.0
  outer loop
    vertex 7.199542512345407 -4.3904324752207495 5.6399329810033115e-15
    vertex 15.159243354202225 0.0235289645853206 5.6399329810033115e-15
    vertex 7.199542512345407 -12.450569528990801 5.6399329810033115e-15
  endloop
endfacet
facet normal 0.0 0.0 -1.0
  outer loop
    vertex 7.199542512345407 -12.450569528990801 5.6399329810033115e-15
    vertex 15.159243354202225 0.0235289645853206 5.6399329810033115e-15
    vertex 12.39050735420225 -4.3904324752207495 5.6399329810033115e-15
  endloop
endfacet
facet normal 0.0 0.0 -1.0
  outer loop
    vertex 7.199542512345407 -12.450569528990801 5.6399329810033115e-15
    vertex 12.39050735420225 -4.3904324752207495 5.6399329810033115e-15
    vertex 7.753408512345404 -12.450569528990801 5.6399329810033115e-15
  endloop
endfacet
facet normal 0.0 0.0 -1.0
  outer loop
    vertex 7.753408512345404 -12.450569528990801 5.6399329810033115e-15
    vertex 12.39050735420225 -4.3904324752207495 5.6399329810033115e-15
    vertex 8.612559230626154 -12.378865047039948 5.6399329810033115e-15
  endloop
endfacet
facet normal 0.0 0.0 -1.0
  outer loop
    vertex 8.612559230626154 -12.378865047039948 5.6399329810033115e-15
    vertex 12.39050735420225 -4.3904324752207495 5.6399329810033115e-15
    vertex 9.447937789356066 -12.165735619065988 5.6399329810033115e-15
  endloop
endfacet
facet normal 0.0 0.0 -1.0
  outer loop
    vertex 9.447937789356066 -12.165735619065988 5.6399329810033115e-15
    vertex 12.39050735420225 -4.3904324752207495 5.6399329810033115e-15
    vertex 10.236429789674814 -11.817078402178817 5.6399329810033115e-15
  endloop
endfacet
facet normal 0.0 0.0 -1.0
  outer loop
    vertex 10.236429789674814 -11.817078402178817 5.6399329810033115e-15
    vertex 12.39050735420225 -4.3904324752207495 5.6399329810033115e-15
    vertex 10.956218154278845 -11.34254052209457 5.6399329810033115e-15
  endloop
endfacet
facet normal 0.0 0.0 -1.0
  outer loop
    vertex 10.956218154278845 -11.34254052209457 5.6399329810033115e-15
    vertex 12.39050735420225 -4.3904324752207495 5.6399329810033115e-15
    vertex 11.587386792216783 -10.755252143239904 5.6399329810033115e-15
  endloop
endfacet
facet normal 0.0 0.0 -1.0
  outer loop
    vertex 11.587386792216783 -10.755252143239904 5.6399329810033115e-15
    vertex 12.39050735420225 -4.3904324752207495 5.6399329810033115e-15
    vertex 12.112471664589194 -10.071463165367502 5.6399329810033115e-15
  endloop
endfacet
facet normal 0.0 0.0 -1.0
  outer loop
    vertex 12.39050735420225 -4.3904324752207495 5.6399329810033115e-15
    vertex 15.159243354202225 0.0235289645853206 5.6399329810033115e-15
    vertex 19.079032794008288 -4.3904324752207495 5.6399329810033115e-15
  endloop
endfacet
facet normal 0.0 0.0 -1.0
  outer loop
    vertex 19.079032794008288 -4.3904324752207495 5.6399329810033115e-15
    vertex 15.159243354202225 0.0235289645853206 5.6399329810033115e-15
    vertex 15.701015883832772 -0.04437042717116793 5.6399329810033115e-15
  endloop
endfacet
facet normal 0.0 0.0 -1.0
  outer loop
    vertex 19.079032794008288 -4.3904324752207495 5.6399329810033115e-15
    vertex 15.701015883832772 -0.04437042717116793 5.6399329810033115e-15
    vertex 16.22929082530843 -0.1824044355606504 5.6399329810033115e-15
  endloop
endfacet
facet normal 0.0 0.0 -1.0
  outer loop
    vertex 19.079032794008288 -4.3904324752207495 5.6399329810033115e-15
    vertex 16.22929082530843 -0.1824044355606504 5.6399329810033115e-15
    vertex 16.73502924791508 -0.3882112604293173 5.6399329810033115e-15
  endloop
endfacet
facet normal 0.0 0.0 -1.0
  outer loop
    vertex 19.079032794008288 -4.3904324752207495 5.6399329810033115e-15
    vertex 16.73502924791508 -0.3882112604293173 5.6399329810033115e-15
    vertex 17.20957782702473 -0.6582694899432382 5.6399329810033115e-15
  endloop
endfacet
facet normal 0.0 0.0 -1.0
  outer loop
    vertex 19.079032794008288 -4.3904324752207495 5.6399329810033115e-15
    vertex 17.20957782702473 -0.6582694899432382 5.6399329810033115e-15
    vertex 17.644816904879097 -0.9879583529211445 5.6399329810033115e-15
  endloop
endfacet
facet normal 0.0 0.0 -1.0
  outer loop
    vertex 19.079032794008288 -4.3904324752207495 5.6399329810033115e-15
    vertex 17.644816904879097 -0.9879583529211445 5.6399329810033115e-15
    vertex 18.03329942018504 -1.3716367815104606 5.6399329810033115e-15
  endloop
endfacet
facet normal 0.0 0.0 -1.0
  outer loop
    vertex 19.079032794008288 -4.3904324752207495 5.6399329810033115e-15
    vertex 18.03329942018504 -1.3716367815104606 5.6399329810033115e-15
    vertex 18.368378329397903 -1.8027399314222623 5.6399329810033115e-15
  endloop
endfacet
facet normal 0.0 0.0 -1.0
  outer loop
    vertex 19.079032794008288 -4.3904324752207495 5.6399329810033115e-15
    vertex 18.368378329397903 -1.8027399314222623 5.6399329810033115e-15
    vertex 18.64432033947975 -2.273891508237199 5.6399329810033115e-15
  endloop
endfacet
facet normal 0.0 0.0 -1.0
  outer loop
    vertex 19.079032794008288 -4.3904324752207495 5.6399329810033115e-15
    vertex 18.64432033947975 -2.273891508237199 5.6399329810033115e-15
    vertex 18.85640400613239 -2.7770299778480516 5.6399329810033115e-15
  endloop
endfacet
facet normal 0.0 0.0 -1.0
  outer loop
    vertex 19.079032794008288 -4.3904324752207495 5.6399329810033115e-15
    vertex 18.85640400613239 -2.7770299778480516 5.6399329810033115e-15
    vertex 19.001000519018707 -3.303546501543462 5.6399329810033115e-15
  endloop
endfacet
facet normal 0.0 0.0 -1.0
  outer loop
    vertex 19.079032794008288 -4.3904324752207495 5.6399329810033115e-15
    vertex 19.001000519018707 -3.303546501543462 5.6399329810033115e-15
    vertex 19.07563579171357 -3.8444322356250313 5.6399329810033115e-15
  endloop
endfacet
facet normal 0.0 0.0 -1.0
  outer loop
    vertex 12.39050735420225 -4.3904324752207495 5.6399329810033115e-15
    vertex 12.51694400351151 -9.310093599058929 5.6399329810033115e-15
    vertex 12.112471664589194 -10.071463165367502 5.6399329810033115e-15
  endloop
endfacet
facet normal 0.0 0.0 -1.0
  outer loop
    vertex 12.51694400351151 -9.310093599058929 5.6399329810033115e-15
    vertex 12.39050735420225 -4.3904324752207495 5.6399329810033115e-15
    vertex 12.469692281234977 -5.118285186965601 5.6399329810033115e-15
  endloop
endfacet
facet normal 0.0 0.0 -1.0
  outer loop
    vertex 12.51694400351151 -9.310093599058929 5.6399329810033115e-15
    vertex 12.469692281234977 -5.118285186965601 5.6399329810033115e-15
    vertex 12.760727977005732 -5.92981443058002 5.6399329810033115e-15
  endloop
endfacet
facet normal 0.0 0.0 -1.0
  outer loop
    vertex 12.51694400351151 -9.310093599058929 5.6399329810033115e-15
    vertex 12.760727977005732 -5.92981443058002 5.6399329810033115e-15
    vertex 12.789612313975695 -8.492210060941941 5.6399329810033115e-15
  endloop
endfacet
facet normal 0.0 0.0 -1.0
  outer loop
    vertex 12.789612313975695 -8.492210060941941 5.6399329810033115e-15
    vertex 12.760727977005732 -5.92981443058002 5.6399329810033115e-15
    vertex 12.913214295230567 -6.778359899136902 5.6399329810033115e-15
  endloop
endfacet
facet normal 0.0 0.0 -1.0
  outer loop
    vertex 12.789612313975695 -8.492210060941941 5.6399329810033115e-15
    vertex 12.913214295230567 -6.778359899136902 5.6399329810033115e-15
    vertex 12.922932035472327 -7.640442873669369 5.6399329810033115e-15
  endloop
endfacet
facet normal -0.0 -0.0 1.0
  outer loop
    vertex 7.753408512345404 -12.450569528990801 6.000000000000006
    vertex 7.199542512345407 -4.3904324752207495 6.000000000000006
    vertex 7.199542512345407 -12.450569528990801 6.000000000000006
  endloop
endfacet
facet normal -0.0 -0.0 1.0
  outer loop
    vertex 12.51694400351151 -9.310093599058929 6.000000000000006
    vertex 12.39050735420225 -4.3904324752207495 6.000000000000006
    vertex 12.112471664589194 -10.071463165367502 6.000000000000006
  endloop
endfacet
facet normal -0.0 -0.0 1.0
  outer loop
    vertex 12.39050735420225 -4.3904324752207495 6.000000000000006
    vertex 12.51694400351151 -9.310093599058929 6.000000000000006
    vertex 12.469692281234977 -5.118285186965601 6.000000000000006
  endloop
endfacet
facet normal -0.0 -0.0 1.0
  outer loop
    vertex 12.469692281234977 -5.118285186965601 6.000000000000006
    vertex 12.51694400351151 -9.310093599058929 6.000000000000006
    vertex 12.760727977005732 -5.92981443058002 6.000000000000006
  endloop
endfacet
facet normal -0.0 -0.0 1.0
  outer loop
    vertex 12.760727977005732 -5.92981443058002 6.000000000000006
    vertex 12.51694400351151 -9.310093599058929 6.000000000000006
    vertex 12.789612313975695 -8.492210060941941 6.000000000000006
  endloop
endfacet
facet normal -0.0 -0.0 1.0
  outer loop
    vertex 12.760727977005732 -5.92981443058002 6.000000000000006
    vertex 12.789612313975695 -8.492210060941941 6.000000000000006
    vertex 12.913214295230567 -6.778359899136902 6.000000000000006
  endloop
endfacet
facet normal -0.0 -0.0 1.0
  outer loop
    vertex 12.913214295230567 -6.778359899136902 6.000000000000006
    vertex 12.789612313975695 -8.492210060941941 6.000000000000006
    vertex 12.922932035472327 -7.640442873669369 6.000000000000006
  endloop
endfacet
facet normal -0.0 -0.0 1.0
  outer loop
    vertex 1.587448512345402 -4.3904324752207495 6.000000000000006
    vertex 0.4771030748340636 -3.8444322356250327 6.000000000000006
    vertex 0.47370607253933744 -4.390432475220752 6.000000000000006
  endloop
endfacet
facet normal -0.0 -0.0 1.0
  outer loop
    vertex 0.4771030748340636 -3.8444322356250327 6.000000000000006
    vertex 1.587448512345402 -4.3904324752207495 6.000000000000006
    vertex 0.5517383475288969 -3.3035465015434653 6.000000000000006
  endloop
endfacet
facet normal -0.0 -0.0 1.0
  outer loop
    vertex 0.5517383475288969 -3.3035465015434653 6.000000000000006
    vertex 1.587448512345402 -4.3904324752207495 6.000000000000006
    vertex 0.6963348604152405 -2.777029977848056 6.000000000000006
  endloop
endfacet
facet normal -0.0 -0.0 1.0
  outer loop
    vertex 0.6963348604152405 -2.777029977848056 6.000000000000006
    vertex 1.587448512345402 -4.3904324752207495 6.000000000000006
    vertex 0.9084185270678966 -2.2738915082372015 6.000000000000006
  endloop
endfacet
facet normal -0.0 -0.0 1.0
  outer loop
    vertex 0.9084185270678966 -2.2738915082372015 6.000000000000006
    vertex 1.587448512345402 -4.3904324752207495 6.000000000000006
    vertex 1.1843605371496937 -1.8027399314222652 6.000000000000006
  endloop
endfacet
facet normal -0.0 -0.0 1.0
  outer loop
    vertex 1.1843605371496937 -1.8027399314222652 6.000000000000006
    vertex 1.587448512345402 -4.3904324752207495 6.000000000000006
    vertex 1.5194394463625995 -1.3716367815104622 6.000000000000006
  endloop
endfacet
facet normal -0.0 -0.0 1.0
  outer loop
    vertex 1.5194394463625995 -1.3716367815104622 6.000000000000006
    vertex 1.587448512345402 -4.3904324752207495 6.000000000000006
    vertex 1.9079219616685184 -0.9879583529211445 6.000000000000006
  endloop
endfacet
facet normal -0.0 -0.0 1.0
  outer loop
    vertex 1.9079219616685184 -0.9879583529211445 6.000000000000006
    vertex 1.587448512345402 -4.3904324752207495 6.000000000000006
    vertex 7.199542512345407 -4.3904324752207495 6.000000000000006
  endloop
endfacet
facet normal -0.0 -0.0 1.0
  outer loop
    vertex 1.9079219616685184 -0.9879583529211445 6.000000000000006
    vertex 7.199542512345407 -4.3904324752207495 6.000000000000006
    vertex 2.3431610395228923 -0.6582694899432403 6.000000000000006
  endloop
endfacet
facet normal -0.0 -0.0 1.0
  outer loop
    vertex 2.3431610395228923 -0.6582694899432403 6.000000000000006
    vertex 7.199542512345407 -4.3904324752207495 6.000000000000006
    vertex 2.8177096186325428 -0.3882112604293194 6.000000000000006
  endloop
endfacet
facet normal -0.0 -0.0 1.0
  outer loop
    vertex 2.8177096186325428 -0.3882112604293194 6.000000000000006
    vertex 7.199542512345407 -4.3904324752207495 6.000000000000006
    vertex 3.3234480412391876 -0.1824044355606511 6.000000000000006
  endloop
endfacet
facet normal -0.0 -0.0 1.0
  outer loop
    vertex 3.3234480412391876 -0.1824044355606511 6.000000000000006
    vertex 7.199542512345407 -4.3904324752207495 6.000000000000006
    vertex 3.8517229827148616 -0.04437042717116863 6.000000000000006
  endloop
endfacet
facet normal -0.0 -0.0 1.0
  outer loop
    vertex 3.8517229827148616 -0.04437042717116863 6.000000000000006
    vertex 7.199542512345407 -4.3904324752207495 6.000000000000006
    vertex 4.0245178382690545 0.0016494486521352934 6.000000000000006
  endloop
endfacet
facet normal -0.0 -0.0 1.0
  outer loop
    vertex 4.0245178382690545 0.0016494486521352934 6.000000000000006
    vertex 7.199542512345407 -4.3904324752207495 6.000000000000006
    vertex 4.393495512345404 0.02352896458531778 6.000000000000006
  endloop
endfacet
facet normal -0.0 -0.0 1.0
  outer loop
    vertex 4.393495512345404 0.02352896458531778 6.000000000000006
    vertex 7.199542512345407 -4.3904324752207495 6.000000000000006
    vertex 15.159243354202225 0.0235289645853206 6.000000000000006
  endloop
endfacet
facet normal -0.0 -0.0 1.0
  outer loop
    vertex 15.159243354202225 0.0235289645853206 6.000000000000006
    vertex 7.199542512345407 -4.3904324752207495 6.000000000000006
    vertex 12.39050735420225 -4.3904324752207495 6.000000000000006
  endloop
endfacet
facet normal -0.0 -0.0 1.0
  outer loop
    vertex 12.39050735420225 -4.3904324752207495 6.000000000000006
    vertex 7.199542512345407 -4.3904324752207495 6.000000000000006
    vertex 7.753408512345404 -12.450569528990801 6.000000000000006
  endloop
endfacet
facet normal -0.0 -0.0 1.0
  outer loop
    vertex 12.39050735420225 -4.3904324752207495 6.000000000000006
    vertex 7.753408512345404 -12.450569528990801 6.000000000000006
    vertex 8.612559230626154 -12.378865047039948 6.000000000000006
  endloop
endfacet
facet normal -0.0 -0.0 1.0
  outer loop
    vertex 12.39050735420225 -4.3904324752207495 6.000000000000006
    vertex 8.612559230626154 -12.378865047039948 6.000000000000006
    vertex 9.447937789356066 -12.165735619065988 6.000000000000006
  endloop
endfacet
facet normal -0.0 -0.0 1.0
  outer loop
    vertex 12.39050735420225 -4.3904324752207495 6.000000000000006
    vertex 9.447937789356066 -12.165735619065988 6.000000000000006
    vertex 10.236429789674814 -11.817078402178817 6.000000000000006
  endloop
endfacet
facet normal -0.0 -0.0 1.0
  outer loop
    vertex 12.39050735420225 -4.3904324752207495 6.000000000000006
    vertex 10.236429789674814 -11.817078402178817 6.000000000000006
    vertex 10.956218154278845 -11.34254052209457 6.000000000000006
  endloop
endfacet
facet normal -0.0 -0.0 1.0
  outer loop
    vertex 12.39050735420225 -4.3904324752207495 6.000000000000006
    vertex 10.956218154278845 -11.34254052209457 6.000000000000006
    vertex 11.587386792216783 -10.755252143239904 6.000000000000006
  endloop
endfacet
facet normal -0.0 -0.0 1.0
  outer loop
    vertex 12.39050735420225 -4.3904324752207495 6.000000000000006
    vertex 11.587386792216783 -10.755252143239904 6.000000000000006
    vertex 12.112471664589194 -10.071463165367502 6.000000000000006
  endloop
endfacet
facet normal -0.0 -0.0 1.0
  outer loop
    vertex 15.159243354202225 0.0235289645853206 6.000000000000006
    vertex 12.39050735420225 -4.3904324752207495 6.000000000000006
    vertex 19.079032794008288 -4.3904324752207495 6.000000000000006
  endloop
endfacet
facet normal -0.0 -0.0 1.0
  outer loop
    vertex 15.159243354202225 0.0235289645853206 6.000000000000006
    vertex 19.079032794008288 -4.3904324752207495 6.000000000000006
    vertex 15.701015883832772 -0.04437042717116793 6.000000000000006
  endloop
endfacet
facet normal -0.0 -0.0 1.0
  outer loop
    vertex 15.701015883832772 -0.04437042717116793 6.000000000000006
    vertex 19.079032794008288 -4.3904324752207495 6.000000000000006
    vertex 16.22929082530843 -0.1824044355606504 6.000000000000006
  endloop
endfacet
facet normal -0.0 -0.0 1.0
  outer loop
    vertex 16.22929082530843 -0.1824044355606504 6.000000000000006
    vertex 19.079032794008288 -4.3904324752207495 6.000000000000006
    vertex 16.73502924791508 -0.3882112604293173 6.000000000000006
  endloop
endfacet
facet normal -0.0 -0.0 1.0
  outer loop
    vertex 16.73502924791508 -0.3882112604293173 6.000000000000006
    vertex 19.079032794008288 -4.3904324752207495 6.000000000000006
    vertex 17.20957782702473 -0.6582694899432382 6.000000000000006
  endloop
endfacet
facet normal -0.0 -0.0 1.0
  outer loop
    vertex 17.20957782702473 -0.6582694899432382 6.000000000000006
    vertex 19.079032794008288 -4.3904324752207495 6.000000000000006
    vertex 17.644816904879097 -0.9879583529211445 6.000000000000006
  endloop
endfacet
facet normal -0.0 -0.0 1.0
  outer loop
    vertex 17.644816904879097 -0.9879583529211445 6.000000000000006
    vertex 19.079032794008288 -4.3904324752207495 6.000000000000006
    vertex 18.03329942018504 -1.3716367815104606 6.000000000000006
  endloop
endfacet
facet normal -0.0 -0.0 1.0
  outer loop
    vertex 18.03329942018504 -1.3716367815104606 6.000000000000006
    vertex 19.079032794008288 -4.3904324752207495 6.000000000000006
    vertex 18.368378329397903 -1.8027399314222623 6.000000000000006
  endloop
endfacet
facet normal -0.0 -0.0 1.0
  outer loop
    vertex 18.368378329397903 -1.8027399314222623 6.000000000000006
    vertex 19.079032794008288 -4.3904324752207495 6.000000000000006
    vertex 18.64432033947975 -2.273891508237199 6.000000000000006
  endloop
endfacet
facet normal -0.0 -0.0 1.0
  outer loop
    vertex 18.64432033947975 -2.273891508237199 6.000000000000006
    vertex 19.079032794008288 -4.3904324752207495 6.000000000000006
    vertex 18.85640400613239 -2.7770299778480516 6.000000000000006
  endloop
endfacet
facet normal -0.0 -0.0 1.0
  outer loop
    vertex 18.85640400613239 -2.7770299778480516 6.000000000000006
    vertex 19.079032794008288 -4.3904324752207495 6.000000000000006
    vertex 19.001000519018707 -3.303546501543462 6.000000000000006
  endloop
endfacet
facet normal -0.0 -0.0 1.0
  outer loop
    vertex 19.001000519018707 -3.303546501543462 6.000000000000006
    vertex 19.079032794008288 -4.3904324752207495 6.000000000000006
    vertex 19.07563579171357 -3.8444322356250313 6.000000000000006
  endloop
endfacet
facet normal -0.0 -1.0 -0.0
  outer loop
    vertex 19.079032794008288 -4.3904324752207495 6.000000000000006
    vertex 12.39050735420225 -4.3904324752207495 5.6399329810033115e-15
    vertex 19.079032794008288 -4.3904324752207495 5.6399329810033115e-15
  endloop
endfacet
facet normal -0.0 -1.0 -0.0
  outer loop
    vertex 12.39050735420225 -4.3904324752207495 5.6399329810033115e-15
    vertex 19.079032794008288 -4.3904324752207495 6.000000000000006
    vertex 12.39050735420225 -4.3904324752207495 6.000000000000006
  endloop
endfacet
facet normal 0.9941341139281631 0.10815435046389135 0.0
  outer loop
    vertex 12.39050735420225 -4.3904324752207495 5.6399329810033115e-15
    vertex 12.469692281234977 -5.118285186965601 6.000000000000006
    vertex 12.469692281234977 -5.118285186965601 5.6399329810033115e-15
  endloop
endfacet
facet normal 0.9941341139281631 0.10815435046389135 0.0
  outer loop
    vertex 12.469692281234977 -5.118285186965601 6.000000000000006
    vertex 12.39050735420225 -4.3904324752207495 5.6399329810033115e-15
    vertex 12.39050735420225 -4.3904324752207495 6.000000000000006
  endloop
endfacet
facet normal 0.9412988230220555 0.3375744744160811 0.0
  outer loop
    vertex 12.469692281234977 -5.118285186965601 5.6399329810033115e-15
    vertex 12.760727977005732 -5.92981443058002 6.000000000000006
    vertex 12.760727977005732 -5.92981443058002 5.6399329810033115e-15
  endloop
endfacet
facet normal 0.9412988230220555 0.3375744744160811 0.0
  outer loop
    vertex 12.760727977005732 -5.92981443058002 6.000000000000006
    vertex 12.469692281234977 -5.118285186965601 5.6399329810033115e-15
    vertex 12.469692281234977 -5.118285186965601 6.000000000000006
  endloop
endfacet
facet normal 0.9842342184439874 0.17687001793394375 0.0
  outer loop
    vertex 12.760727977005732 -5.92981443058002 5.6399329810033115e-15
    vertex 12.913214295230567 -6.778359899136902 6.000000000000006
    vertex 12.913214295230567 -6.778359899136902 5.6399329810033115e-15
  endloop
endfacet
facet normal 0.9842342184439874 0.17687001793394375 0.0
  outer loop
    vertex 12.913214295230567 -6.778359899136902 6.000000000000006
    vertex 12.760727977005732 -5.92981443058002 5.6399329810033115e-15
    vertex 12.760727977005732 -5.92981443058002 6.000000000000006
  endloop
endfacet
facet normal 0.9999364726039666 0.011271679392921874 0.0
  outer loop
    vertex 12.913214295230567 -6.778359899136902 5.6399329810033115e-15
    vertex 12.922932035472327 -7.640442873669369 6.000000000000006
    vertex 12.922932035472327 -7.640442873669369 5.6399329810033115e-15
  endloop
endfacet
facet normal 0.9999364726039666 0.011271679392921874 0.0
  outer loop
    vertex 12.922932035472327 -7.640442873669369 6.000000000000006
    vertex 12.913214295230567 -6.778359899136902 5.6399329810033115e-15
    vertex 12.913214295230567 -6.778359899136902 6.000000000000006
  endloop
endfacet
facet normal 0.9879711140137504 -0.1546385394215469 0.0
  outer loop
    vertex 12.922932035472327 -7.640442873669369 5.6399329810033115e-15
    vertex 12.789612313975695 -8.492210060941941 6.000000000000006
    vertex 12.789612313975695 -8.492210060941941 5.6399329810033115e-15
  endloop
endfacet
facet normal 0.9879711140137504 -0.1546385394215469 0.0
  outer loop
    vertex 12.789612313975695 -8.492210060941941 6.000000000000006
    vertex 12.922932035472327 -7.640442873669369 5.6399329810033115e-15
    vertex 12.922932035472327 -7.640442873669369 6.000000000000006
  endloop
endfacet
facet normal 0.9486692166134993 -0.31627000719310966 0.0
  outer loop
    vertex 12.789612313975695 -8.492210060941941 5.6399329810033115e-15
    vertex 12.51694400351151 -9.310093599058929 6.000000000000006
    vertex 12.51694400351151 -9.310093599058929 5.6399329810033115e-15
  endloop
endfacet
facet normal 0.9486692166134993 -0.31627000719310966 0.0
  outer loop
    vertex 12.51694400351151 -9.310093599058929 6.000000000000006
    vertex 12.789612313975695 -8.492210060941941 5.6399329810033115e-15
    vertex 12.789612313975695 -8.492210060941941 6.000000000000006
  endloop
endfacet
facet normal 0.8831182391642433 -0.4691504829534406 0.0
  outer loop
    vertex 12.51694400351151 -9.310093599058929 5.6399329810033115e-15
    vertex 12.112471664589194 -10.071463165367502 6.000000000000006
    vertex 12.112471664589194 -10.071463165367502 5.6399329810033115e-15
  endloop
endfacet
facet normal 0.8831182391642433 -0.4691504829534406 0.0
  outer loop
    vertex 12.112471664589194 -10.071463165367502 6.000000000000006
    vertex 12.51694400351151 -9.310093599058929 5.6399329810033115e-15
    vertex 12.51694400351151 -9.310093599058929 6.000000000000006
  endloop
endfacet
facet normal 0.7931319359485385 -0.6090498601744554 0.0
  outer loop
    vertex 12.112471664589194 -10.071463165367502 5.6399329810033115e-15
    vertex 11.587386792216783 -10.755252143239904 6.000000000000006
    vertex 11.587386792216783 -10.755252143239904 5.6399329810033115e-15
  endloop
endfacet
facet normal 0.7931319359485385 -0.6090498601744554 0.0
  outer loop
    vertex 11.587386792216783 -10.755252143239904 6.000000000000006
    vertex 12.112471664589194 -10.071463165367502 5.6399329810033115e-15
    vertex 12.112471664589194 -10.071463165367502 6.000000000000006
  endloop
endfacet
facet normal 0.6812001713312008 -0.7320972111532339 0.0
  outer loop
    vertex 11.587386792216783 -10.755252143239904 6.000000000000006
    vertex 10.956218154278845 -11.34254052209457 5.6399329810033115e-15
    vertex 11.587386792216783 -10.755252143239904 5.6399329810033115e-15
  endloop
endfacet
facet normal 0.6812001713312008 -0.7320972111532339 0.0
  outer loop
    vertex 10.956218154278845 -11.34254052209457 5.6399329810033115e-15
    vertex 11.587386792216783 -10.755252143239904 6.000000000000006
    vertex 10.956218154278845 -11.34254052209457 6.000000000000006
  endloop
endfacet
facet normal 0.5504200267795919 -0.834887893144914 0.0
  outer loop
    vertex 10.956218154278845 -11.34254052209457 6.000000000000006
    vertex 10.236429789674814 -11.817078402178817 5.6399329810033115e-15
    vertex 10.956218154278845 -11.34254052209457 5.6399329810033115e-15
  endloop
endfacet
facet normal 0.5504200267795919 -0.834887893144914 0.0
  outer loop
    vertex 10.236429789674814 -11.817078402178817 5.6399329810033115e-15
    vertex 10.956218154278845 -11.34254052209457 6.000000000000006
    vertex 10.236429789674814 -11.817078402178817 6.000000000000006
  endloop
endfacet
facet normal 0.40441010656908755 -0.9145777526841441 0.0
  outer loop
    vertex 10.236429789674814 -11.817078402178817 6.000000000000006
    vertex 9.447937789356066 -12.165735619065988 5.6399329810033115e-15
    vertex 10.236429789674814 -11.817078402178817 5.6399329810033115e-15
  endloop
endfacet
facet normal 0.40441010656908755 -0.9145777526841441 0.0
  outer loop
    vertex 9.447937789356066 -12.165735619065988 5.6399329810033115e-15
    vertex 10.236429789674814 -11.817078402178817 6.000000000000006
    vertex 9.447937789356066 -12.165735619065988 6.000000000000006
  endloop
endfacet
facet normal 0.24721041328064663 -0.968961821521164 0.0
  outer loop
    vertex 9.447937789356066 -12.165735619065988 6.000000000000006
    vertex 8.612559230626154 -12.378865047039948 5.6399329810033115e-15
    vertex 9.447937789356066 -12.165735619065988 5.6399329810033115e-15
  endloop
endfacet
facet normal 0.24721041328064663 -0.968961821521164 0.0
  outer loop
    vertex 8.612559230626154 -12.378865047039948 5.6399329810033115e-15
    vertex 9.447937789356066 -12.165735619065988 6.000000000000006
    vertex 8.612559230626154 -12.378865047039948 6.000000000000006
  endloop
endfacet
facet normal 0.08317056347240172 -0.9965353267053222 0.0
  outer loop
    vertex 8.612559230626154 -12.378865047039948 6.000000000000006
    vertex 7.753408512345404 -12.450569528990801 5.6399329810033115e-15
    vertex 8.612559230626154 -12.378865047039948 5.6399329810033115e-15
  endloop
endfacet
facet normal 0.08317056347240172 -0.9965353267053222 0.0
  outer loop
    vertex 7.753408512345404 -12.450569528990801 5.6399329810033115e-15
    vertex 8.612559230626154 -12.378865047039948 6.000000000000006
    vertex 7.753408512345404 -12.450569528990801 6.000000000000006
  endloop
endfacet
facet normal -0.0 -1.0 -0.0
  outer loop
    vertex 7.753408512345404 -12.450569528990801 6.000000000000006
    vertex 7.199542512345407 -12.450569528990801 5.6399329810033115e-15
    vertex 7.753408512345404 -12.450569528990801 5.6399329810033115e-15
  endloop
endfacet
facet normal -0.0 -1.0 -0.0
  outer loop
    vertex 7.199542512345407 -12.450569528990801 5.6399329810033115e-15
    vertex 7.753408512345404 -12.450569528990801 6.000000000000006
    vertex 7.199542512345407 -12.450569528990801 6.000000000000006
  endloop
endfacet
facet normal -1.0 0.0 0.0
  outer loop
    vertex 7.199542512345407 -4.3904324752207495 6.000000000000006
    vertex 7.199542512345407 -12.450569528990801 5.6399329810033115e-15
    vertex 7.199542512345407 -12.450569528990801 6.000000000000006
  endloop
endfacet
facet normal -1.0 0.0 0.0
  outer loop
    vertex 7.199542512345407 -12.450569528990801 5.6399329810033115e-15
    vertex 7.199542512345407 -4.3904324752207495 6.000000000000006
    vertex 7.199542512345407 -4.3904324752207495 5.6399329810033115e-15
  endloop
endfacet
facet normal -0.0 -1.0 -0.0
  outer loop
    vertex 7.199542512345407 -4.3904324752207495 6.000000000000006
    vertex 1.587448512345402 -4.3904324752207495 5.6399329810033115e-15
    vertex 7.199542512345407 -4.3904324752207495 5.6399329810033115e-15
  endloop
endfacet
facet normal -0.0 -1.0 -0.0
  outer loop
    vertex 1.587448512345402 -4.3904324752207495 5.6399329810033115e-15
    vertex 7.199542512345407 -4.3904324752207495 6.000000000000006
    vertex 1.587448512345402 -4.3904324752207495 6.000000000000006
  endloop
endfacet
facet normal 2.5319736249243918e-15 -1.0 0.0
  outer loop
    vertex 1.587448512345402 -4.3904324752207495 6.000000000000006
    vertex 0.47370607253933744 -4.390432475220752 5.6399329810033115e-15
    vertex 1.587448512345402 -4.3904324752207495 5.6399329810033115e-15
  endloop
endfacet
facet normal 2.5319736249243918e-15 -1.0 0.0
  outer loop
    vertex 0.47370607253933744 -4.390432475220752 5.6399329810033115e-15
    vertex 1.587448512345402 -4.3904324752207495 6.000000000000006
    vertex 0.47370607253933744 -4.390432475220752 6.000000000000006
  endloop
endfacet
facet normal -0.9999806463264923 0.006221492783168198 0.0
  outer loop
    vertex 0.4771030748340636 -3.8444322356250327 6.000000000000006
    vertex 0.47370607253933744 -4.390432475220752 5.6399329810033115e-15
    vertex 0.47370607253933744 -4.390432475220752 6.000000000000006
  endloop
endfacet
facet normal -0.9999806463264923 0.006221492783168198 0.0
  outer loop
    vertex 0.47370607253933744 -4.390432475220752 5.6399329810033115e-15
    vertex 0.4771030748340636 -3.8444322356250327 6.000000000000006
    vertex 0.4771030748340636 -3.8444322356250327 5.6399329810033115e-15
  endloop
endfacet
facet normal -0.9906136055107546 0.13669193310866207 0.0
  outer loop
    vertex 0.5517383475288969 -3.3035465015434653 6.000000000000006
    vertex 0.4771030748340636 -3.8444322356250327 5.6399329810033115e-15
    vertex 0.4771030748340636 -3.8444322356250327 6.000000000000006
  endloop
endfacet
facet normal -0.9906136055107546 0.13669193310866207 0.0
  outer loop
    vertex 0.4771030748340636 -3.8444322356250327 5.6399329810033115e-15
    vertex 0.5517383475288969 -3.3035465015434653 6.000000000000006
    vertex 0.5517383475288969 -3.3035465015434653 5.6399329810033115e-15
  endloop
endfacet
facet normal -0.9642968912547474 0.26482353656053714 0.0
  outer loop
    vertex 0.6963348604152405 -2.777029977848056 6.000000000000006
    vertex 0.5517383475288969 -3.3035465015434653 5.6399329810033115e-15
    vertex 0.5517383475288969 -3.3035465015434653 6.000000000000006
  endloop
endfacet
facet normal -0.9642968912547474 0.26482353656053714 0.0
  outer loop
    vertex 0.5517383475288969 -3.3035465015434653 5.6399329810033115e-15
    vertex 0.6963348604152405 -2.777029977848056 6.000000000000006
    vertex 0.6963348604152405 -2.777029977848056 5.6399329810033115e-15
  endloop
endfacet
facet normal -0.92148078983575 0.38842393587893415 0.0
  outer loop
    vertex 0.9084185270678966 -2.2738915082372015 6.000000000000006
    vertex 0.6963348604152405 -2.777029977848056 5.6399329810033115e-15
    vertex 0.6963348604152405 -2.777029977848056 6.000000000000006
  endloop
endfacet
facet normal -0.92148078983575 0.38842393587893415 0.0
  outer loop
    vertex 0.6963348604152405 -2.777029977848056 5.6399329810033115e-15
    vertex 0.9084185270678966 -2.2738915082372015 6.000000000000006
    vertex 0.9084185270678966 -2.2738915082372015 5.6399329810033115e-15
  endloop
endfacet
facet normal -0.8628978966199555 0.505378293962905 0.0
  outer loop
    vertex 1.1843605371496937 -1.8027399314222652 6.000000000000006
    vertex 0.9084185270678966 -2.2738915082372015 5.6399329810033115e-15
    vertex 0.9084185270678966 -2.2738915082372015 6.000000000000006
  endloop
endfacet
facet normal -0.8628978966199555 0.505378293962905 0.0
  outer loop
    vertex 0.9084185270678966 -2.2738915082372015 5.6399329810033115e-15
    vertex 1.1843605371496937 -1.8027399314222652 6.000000000000006
    vertex 1.1843605371496937 -1.8027399314222652 5.6399329810033115e-15
  endloop
endfacet
facet normal -0.789550581152455 0.6136854893199125 0.0
  outer loop
    vertex 1.5194394463625995 -1.3716367815104622 6.000000000000006
    vertex 1.1843605371496937 -1.8027399314222652 5.6399329810033115e-15
    vertex 1.1843605371496937 -1.8027399314222652 6.000000000000006
  endloop
endfacet
facet normal -0.789550581152455 0.6136854893199125 0.0
  outer loop
    vertex 1.1843605371496937 -1.8027399314222652 5.6399329810033115e-15
    vertex 1.5194394463625995 -1.3716367815104622 6.000000000000006
    vertex 1.5194394463625995 -1.3716367815104622 5.6399329810033115e-15
  endloop
endfacet
facet normal -0.7026938363366999 0.7114923558088388 0.0
  outer loop
    vertex 1.5194394463625995 -1.3716367815104622 6.000000000000006
    vertex 1.9079219616685184 -0.9879583529211445 5.6399329810033115e-15
    vertex 1.5194394463625995 -1.3716367815104622 5.6399329810033115e-15
  endloop
endfacet
facet normal -0.7026938363366999 0.7114923558088388 0.0
  outer loop
    vertex 1.9079219616685184 -0.9879583529211445 5.6399329810033115e-15
    vertex 1.5194394463625995 -1.3716367815104622 6.000000000000006
    vertex 1.9079219616685184 -0.9879583529211445 6.000000000000006
  endloop
endfacet
facet normal -0.6038138051576543 0.7971253908269605 0.0
  outer loop
    vertex 1.9079219616685184 -0.9879583529211445 6.000000000000006
    vertex 2.3431610395228923 -0.6582694899432403 5.6399329810033115e-15
    vertex 1.9079219616685184 -0.9879583529211445 5.6399329810033115e-15
  endloop
endfacet
facet normal -0.6038138051576543 0.7971253908269605 0.0
  outer loop
    vertex 2.3431610395228923 -0.6582694899432403 5.6399329810033115e-15
    vertex 1.9079219616685184 -0.9879583529211445 6.000000000000006
    vertex 2.3431610395228923 -0.6582694899432403 6.000000000000006
  endloop
endfacet
facet normal -0.4946023523635689 0.8691193894031038 0.0
  outer loop
    vertex 2.3431610395228923 -0.6582694899432403 6.000000000000006
    vertex 2.8177096186325428 -0.3882112604293194 5.6399329810033115e-15
    vertex 2.3431610395228923 -0.6582694899432403 5.6399329810033115e-15
  endloop
endfacet
facet normal -0.4946023523635689 0.8691193894031038 0.0
  outer loop
    vertex 2.8177096186325428 -0.3882112604293194 5.6399329810033115e-15
    vertex 2.3431610395228923 -0.6582694899432403 6.000000000000006
    vertex 2.8177096186325428 -0.3882112604293194 6.000000000000006
  endloop
endfacet
facet normal -0.3769281161908585 0.9262425142611469 0.0
  outer loop
    vertex 2.8177096186325428 -0.3882112604293194 6.000000000000006
    vertex 3.3234480412391876 -0.1824044355606511 5.6399329810033115e-15
    vertex 2.8177096186325428 -0.3882112604293194 5.6399329810033115e-15
  endloop
endfacet
facet normal -0.3769281161908585 0.9262425142611469 0.0
  outer loop
    vertex 3.3234480412391876 -0.1824044355606511 5.6399329810033115e-15
    vertex 2.8177096186325428 -0.3882112604293194 6.000000000000006
    vertex 3.3234480412391876 -0.1824044355606511 6.000000000000006
  endloop
endfacet
facet normal -0.2528045354459005 0.9675173728972428 0.0
  outer loop
    vertex 3.3234480412391876 -0.1824044355606511 6.000000000000006
    vertex 3.8517229827148616 -0.04437042717116863 5.6399329810033115e-15
    vertex 3.3234480412391876 -0.1824044355606511 5.6399329810033115e-15
  endloop
endfacet
facet normal -0.2528045354459005 0.9675173728972428 0.0
  outer loop
    vertex 3.8517229827148616 -0.04437042717116863 5.6399329810033115e-15
    vertex 3.3234480412391876 -0.1824044355606511 6.000000000000006
    vertex 3.8517229827148616 -0.04437042717116863 6.000000000000006
  endloop
endfacet
facet normal -0.25735589136910014 0.9663166898991323 0.0
  outer loop
    vertex 3.8517229827148616 -0.04437042717116863 6.000000000000006
    vertex 4.0245178382690545 0.0016494486521352934 5.6399329810033115e-15
    vertex 3.8517229827148616 -0.04437042717116863 5.6399329810033115e-15
  endloop
endfacet
facet normal -0.25735589136910014 0.9663166898991323 0.0
  outer loop
    vertex 4.0245178382690545 0.0016494486521352934 5.6399329810033115e-15
    vertex 3.8517229827148616 -0.04437042717116863 6.000000000000006
    vertex 4.0245178382690545 0.0016494486521352934 6.000000000000006
  endloop
endfacet
facet normal -0.05919369134978897 0.9982465160992979 0.0
  outer loop
    vertex 4.0245178382690545 0.0016494486521352934 6.000000000000006
    vertex 4.393495512345404 0.02352896458531778 5.6399329810033115e-15
    vertex 4.0245178382690545 0.0016494486521352934 5.6399329810033115e-15
  endloop
endfacet
facet normal -0.05919369134978897 0.9982465160992979 0.0
  outer loop
    vertex 4.393495512345404 0.02352896458531778 5.6399329810033115e-15
    vertex 4.0245178382690545 0.0016494486521352934 6.000000000000006
    vertex 4.393495512345404 0.02352896458531778 6.000000000000006
  endloop
endfacet
facet normal -2.61938745359052e-16 1.0 0.0
  outer loop
    vertex 4.393495512345404 0.02352896458531778 6.000000000000006
    vertex 15.159243354202225 0.0235289645853206 5.6399329810033115e-15
    vertex 4.393495512345404 0.02352896458531778 5.6399329810033115e-15
  endloop
endfacet
facet normal -2.61938745359052e-16 1.0 0.0
  outer loop
    vertex 15.159243354202225 0.0235289645853206 5.6399329810033115e-15
    vertex 4.393495512345404 0.02352896458531778 6.000000000000006
    vertex 15.159243354202225 0.0235289645853206 6.000000000000006
  endloop
endfacet
facet normal 0.12435539900880317 0.992237741036573 0.0
  outer loop
    vertex 15.159243354202225 0.0235289645853206 6.000000000000006
    vertex 15.701015883832772 -0.04437042717116793 5.6399329810033115e-15
    vertex 15.159243354202225 0.0235289645853206 5.6399329810033115e-15
  endloop
endfacet
facet normal 0.12435539900880317 0.992237741036573 0.0
  outer loop
    vertex 15.701015883832772 -0.04437042717116793 5.6399329810033115e-15
    vertex 15.159243354202225 0.0235289645853206 6.000000000000006
    vertex 15.701015883832772 -0.04437042717116793 6.000000000000006
  endloop
endfacet
facet normal 0.2528045354459093 0.9675173728972405 0.0
  outer loop
    vertex 15.701015883832772 -0.04437042717116793 6.000000000000006
    vertex 16.22929082530843 -0.1824044355606504 5.6399329810033115e-15
    vertex 15.701015883832772 -0.04437042717116793 5.6399329810033115e-15
  endloop
endfacet
facet normal 0.2528045354459093 0.9675173728972405 0.0
  outer loop
    vertex 16.22929082530843 -0.1824044355606504 5.6399329810033115e-15
    vertex 15.701015883832772 -0.04437042717116793 6.000000000000006
    vertex 16.22929082530843 -0.1824044355606504 6.000000000000006
  endloop
endfacet
facet normal 0.3769281161908508 0.9262425142611499 0.0
  outer loop
    vertex 16.22929082530843 -0.1824044355606504 6.000000000000006
    vertex 16.73502924791508 -0.3882112604293173 5.6399329810033115e-15
    vertex 16.22929082530843 -0.1824044355606504 5.6399329810033115e-15
  endloop
endfacet
facet normal 0.3769281161908508 0.9262425142611499 0.0
  outer loop
    vertex 16.73502924791508 -0.3882112604293173 5.6399329810033115e-15
    vertex 16.22929082530843 -0.1824044355606504 6.000000000000006
    vertex 16.73502924791508 -0.3882112604293173 6.000000000000006
  endloop
endfacet
facet normal 0.4946023523635689 0.8691193894031038 0.0
  outer loop
    vertex 16.73502924791508 -0.3882112604293173 6.000000000000006
    vertex 17.20957782702473 -0.6582694899432382 5.6399329810033115e-15
    vertex 16.73502924791508 -0.3882112604293173 5.6399329810033115e-15
  endloop
endfacet
facet normal 0.4946023523635689 0.8691193894031038 0.0
  outer loop
    vertex 17.20957782702473 -0.6582694899432382 5.6399329810033115e-15
    vertex 16.73502924791508 -0.3882112604293173 6.000000000000006
    vertex 17.20957782702473 -0.6582694899432382 6.000000000000006
  endloop
endfacet
facet normal 0.6038138051576643 0.797125390826953 0.0
  outer loop
    vertex 17.20957782702473 -0.6582694899432382 6.000000000000006
    vertex 17.644816904879097 -0.9879583529211445 5.6399329810033115e-15
    vertex 17.20957782702473 -0.6582694899432382 5.6399329810033115e-15
  endloop
endfacet
facet normal 0.6038138051576643 0.797125390826953 0.0
  outer loop
    vertex 17.644816904879097 -0.9879583529211445 5.6399329810033115e-15
    vertex 17.20957782702473 -0.6582694899432382 6.000000000000006
    vertex 17.644816904879097 -0.9879583529211445 6.000000000000006
  endloop
endfacet
facet normal 0.7026938363366778 0.7114923558088605 0.0
  outer loop
    vertex 17.644816904879097 -0.9879583529211445 6.000000000000006
    vertex 18.03329942018504 -1.3716367815104606 5.6399329810033115e-15
    vertex 17.644816904879097 -0.9879583529211445 5.6399329810033115e-15
  endloop
endfacet
facet normal 0.7026938363366778 0.7114923558088605 0.0
  outer loop
    vertex 18.03329942018504 -1.3716367815104606 5.6399329810033115e-15
    vertex 17.644816904879097 -0.9879583529211445 6.000000000000006
    vertex 18.03329942018504 -1.3716367815104606 6.000000000000006
  endloop
endfacet
facet normal 0.7895505811524917 0.6136854893198654 0.0
  outer loop
    vertex 18.03329942018504 -1.3716367815104606 5.6399329810033115e-15
    vertex 18.368378329397903 -1.8027399314222623 6.000000000000006
    vertex 18.368378329397903 -1.8027399314222623 5.6399329810033115e-15
  endloop
endfacet
facet normal 0.7895505811524917 0.6136854893198654 0.0
  outer loop
    vertex 18.368378329397903 -1.8027399314222623 6.000000000000006
    vertex 18.03329942018504 -1.3716367815104606 5.6399329810033115e-15
    vertex 18.03329942018504 -1.3716367815104606 6.000000000000006
  endloop
endfacet
facet normal 0.8628978966199128 0.5053782939629782 0.0
  outer loop
    vertex 18.368378329397903 -1.8027399314222623 5.6399329810033115e-15
    vertex 18.64432033947975 -2.273891508237199 6.000000000000006
    vertex 18.64432033947975 -2.273891508237199 5.6399329810033115e-15
  endloop
endfacet
facet normal 0.8628978966199128 0.5053782939629782 0.0
  outer loop
    vertex 18.64432033947975 -2.273891508237199 6.000000000000006
    vertex 18.368378329397903 -1.8027399314222623 5.6399329810033115e-15
    vertex 18.368378329397903 -1.8027399314222623 6.000000000000006
  endloop
endfacet
facet normal 0.9214807898357606 0.3884239358789088 0.0
  outer loop
    vertex 18.64432033947975 -2.273891508237199 5.6399329810033115e-15
    vertex 18.85640400613239 -2.7770299778480516 6.000000000000006
    vertex 18.85640400613239 -2.7770299778480516 5.6399329810033115e-15
  endloop
endfacet
facet normal 0.9214807898357606 0.3884239358789088 0.0
  outer loop
    vertex 18.85640400613239 -2.7770299778480516 6.000000000000006
    vertex 18.64432033947975 -2.273891508237199 5.6399329810033115e-15
    vertex 18.64432033947975 -2.273891508237199 6.000000000000006
  endloop
endfacet
facet normal 0.9642968912547606 0.26482353656048846 0.0
  outer loop
    vertex 18.85640400613239 -2.7770299778480516 5.6399329810033115e-15
    vertex 19.001000519018707 -3.303546501543462 6.000000000000006
    vertex 19.001000519018707 -3.303546501543462 5.6399329810033115e-15
  endloop
endfacet
facet normal 0.9642968912547606 0.26482353656048846 0.0
  outer loop
    vertex 19.001000519018707 -3.303546501543462 6.000000000000006
    vertex 18.85640400613239 -2.7770299778480516 5.6399329810033115e-15
    vertex 18.85640400613239 -2.7770299778480516 6.000000000000006
  endloop
endfacet
facet normal 0.9906136055107477 0.13669193310871242 0.0
  outer loop
    vertex 19.001000519018707 -3.303546501543462 5.6399329810033115e-15
    vertex 19.07563579171357 -3.8444322356250313 6.000000000000006
    vertex 19.07563579171357 -3.8444322356250313 5.6399329810033115e-15
  endloop
endfacet
facet normal 0.9906136055107477 0.13669193310871242 0.0
  outer loop
    vertex 19.07563579171357 -3.8444322356250313 6.000000000000006
    vertex 19.001000519018707 -3.303546501543462 5.6399329810033115e-15
    vertex 19.001000519018707 -3.303546501543462 6.000000000000006
  endloop
endfacet
facet normal 0.9999806463264923 0.006221492783157885 0.0
  outer loop
    vertex 19.07563579171357 -3.8444322356250313 5.6399329810033115e-15
    vertex 19.079032794008288 -4.3904324752207495 6.000000000000006
    vertex 19.079032794008288 -4.3904324752207495 5.6399329810033115e-15
  endloop
endfacet
facet normal 0.9999806463264923 0.006221492783157885 0.0
  outer loop
    vertex 19.079032794008288 -4.3904324752207495 6.000000000000006
    vertex 19.07563579171357 -3.8444322356250313 5.6399329810033115e-15
    vertex 19.07563579171357 -3.8444322356250313 6.000000000000006
  endloop
endfacet
endsolid settlership
