# File produced by Open Asset Import Library (http://www.assimp.sf.net)
# (assimp v3.1.187496374)

mtllib settlers_of_catan_kit.obj.mtl

# 226 vertex positions
v  0 0 0
v  0 0 5
v  0 5 0
v  0 5 5
v  25.2 0 0
v  25.2 0 5
v  25.2 5 0
v  25.2 5 5
v  0 10 0
v  0 10 5
v  0 15 0
v  0 15 5
v  25.2 10 0
v  25.2 10 5
v  25.2 15 0
v  25.2 15 5
v  0 20 0
v  0 20 5
v  0 25 0
v  0 25 5
v  25.2 20 0
v  25.2 20 5
v  25.2 25 0
v  25.2 25 5
v  0 30 0
v  0 30 5
v  0 35 0
v  0 35 5
v  25.2 30 0
v  25.2 30 5
v  25.2 35 0
v  25.2 35 5
v  0 40 0
v  0 40 5
v  0 45 0
v  0 45 5
v  25.2 40 0
v  25.2 40 5
v  25.2 45 0
v  25.2 45 5
v  0 50 0
v  0 50 5
v  0 55 0
v  0 55 5
v  25.2 50 0
v  25.2 50 5
v  25.2 55 0
v  25.2 55 5
v  0 60 0
v  0 60 5
v  0 65 0
v  0 65 5
v  25.2 60 0
v  25.2 60 5
v  25.2 65 0
v  25.2 65 5
v  0 70 0
v  0 70 5
v  0 75 0
v  0 75 5
v  25.2 70 0
v  25.2 70 5
v  25.2 75 0
v  25.2 75 5
v  0 80 0
v  0 80 5
v  0 85 0
v  0 85 5
v  25.2 80 0
v  25.2 80 5
v  25.2 85 0
v  25.2 85 5
v  0 90 0
v  0 90 5
v  0 95 0
v  0 95 5
v  25.2 90 0
v  25.2 90 5
v  25.2 95 0
v  25.2 95 5
v  0 100 0
v  0 100 5
v  0 105 0
v  0 105 5
v  25.2 100 0
v  25.2 100 5
v  25.2 105 0
v  25.2 105 5
v  0 110 0
v  0 110 5
v  0 115 0
v  0 115 5
v  25.2 110 0
v  25.2 110 5
v  25.2 115 0
v  25.2 115 5
v  0 120 0
v  0 120 5
v  0 125 0
v  0 125 5
v  25.2 120 0
v  25.2 120 5
v  25.2 125 0
v  25.2 125 5
v  0 130 0
v  0 130 5
v  0 135 0
v  0 135 5
v  25.2 130 0
v  25.2 130 5
v  25.2 135 0
v  25.2 135 5
v  0 140 0
v  0 140 5
v  0 145 0
v  0 145 5
v  25.2 140 0
v  25.2 140 5
v  25.2 145 0
v  25.2 145 5
v  44.2 -3.10862e-15 7
v  30.2 0 7
v  30.2 0 0
v  44.2 -3.10862e-15 3.10862e-15
v  30.2 5 11.5
v  30.2 10 7
v  30.2 10 0
v  44.2 5 11.5
v  44.2 10 7
v  44.2 10 3.10862e-15
v  44.2 15 7
v  30.2 15 7
v  30.2 15 0
v  44.2 15 3.10862e-15
v  30.2 20 11.5
v  30.2 25 7
v  30.2 25 0
v  44.2 20 11.5
v  44.2 25 7
v  44.2 25 3.10862e-15
v  44.2 30 7
v  30.2 30 7
v  30.2 30 0
v  44.2 30 3.10862e-15
v  30.2 35 11.5
v  30.2 40 7
v  30.2 40 0
v  44.2 35 11.5
v  44.2 40 7
v  44.2 40 3.10862e-15
v  44.2 45 7
v  30.2 45 7
v  30.2 45 0
v  44.2 45 3.10862e-15
v  30.2 50 11.5
v  30.2 55 7
v  30.2 55 0
v  44.2 50 11.5
v  44.2 55 7
v  44.2 55 3.10862e-15
v  44.2 60 7
v  30.2 60 7
v  30.2 60 0
v  44.2 60 3.10862e-15
v  30.2 65 11.5
v  30.2 70 7
v  30.2 70 0
v  44.2 65 11.5
v  44.2 70 7
v  44.2 70 3.10862e-15
v  59.2 -2.22045e-15 15
v  49.2 0 15
v  49.2 0 0
v  59.2 -2.22045e-15 2.22045e-15
v  49.2 4.95 19
v  49.2 9.9 15
v  49.2 9.9 9.7
v  49.2 19 9.7
v  49.2 19 0
v  59.2 4.95 19
v  59.2 9.9 9.7
v  59.2 9.9 15
v  59.2 19 2.22045e-15
v  59.2 19 9.7
v  59.2 24 15
v  49.2 24 15
v  49.2 24 0
v  59.2 24 2.22045e-15
v  49.2 28.95 19
v  49.2 33.9 15
v  49.2 33.9 9.7
v  49.2 43 9.7
v  49.2 43 0
v  59.2 28.95 19
v  59.2 33.9 9.7
v  59.2 33.9 15
v  59.2 43 2.22045e-15
v  59.2 43 9.7
v  59.2 48 15
v  49.2 48 15
v  49.2 48 0
v  59.2 48 2.22045e-15
v  49.2 52.95 19
v  49.2 57.9 15
v  49.2 57.9 9.7
v  49.2 67 9.7
v  49.2 67 0
v  59.2 52.95 19
v  59.2 57.9 9.7
v  59.2 57.9 15
v  59.2 67 2.22045e-15
v  59.2 67 9.7
v  59.2 72 15
v  49.2 72 15
v  49.2 72 0
v  59.2 72 2.22045e-15
v  49.2 76.95 19
v  49.2 81.9 15
v  49.2 81.9 9.7
v  49.2 91 9.7
v  49.2 91 0
v  59.2 76.95 19
v  59.2 81.9 9.7
v  59.2 81.9 15
v  59.2 91 2.22045e-15
v  59.2 91 9.7

# 0 UV coordinates

# 16 vertex normals
vn -1 0 0
vn 0 -1 0
vn 0 0 -1
vn 0 1 0
vn 0 0 1
vn 1 0 0
vn -2.22045e-16 -1 -4.93038e-32
vn -1 2.22045e-16 -2.22045e-16
vn -3.13584e-16 -0.668965 0.743294
vn 1 -2.22045e-16 2.22045e-16
vn 2.22045e-16 -4.93038e-32 -1
vn 2.22045e-16 1 4.93038e-32
vn -1.65044e-17 0.668965 0.743294
vn -3.12264e-16 -0.62852 0.777793
vn -2.22045e-16 4.93038e-32 1
vn -3.31454e-17 0.62852 0.777793

# Mesh 'OpenSCAD_Model' with 356 faces
g OpenSCAD_Model
usemtl DefaultMaterial
f  1//1 2//1 3//1
f  3//1 2//1 4//1
f  2//2 1//2 5//2
f  6//2 2//2 5//2
f  1//3 3//3 5//3
f  5//3 3//3 7//3
f  3//4 4//4 7//4
f  7//4 4//4 8//4
f  4//5 2//5 6//5
f  8//5 4//5 6//5
f  6//6 5//6 7//6
f  8//6 6//6 7//6
f  9//1 10//1 11//1
f  11//1 10//1 12//1
f  10//2 9//2 13//2
f  14//2 10//2 13//2
f  9//3 11//3 13//3
f  13//3 11//3 15//3
f  11//4 12//4 15//4
f  15//4 12//4 16//4
f  12//5 10//5 14//5
f  16//5 12//5 14//5
f  14//6 13//6 15//6
f  16//6 14//6 15//6
f  17//1 18//1 19//1
f  19//1 18//1 20//1
f  18//2 17//2 21//2
f  22//2 18//2 21//2
f  17//3 19//3 21//3
f  21//3 19//3 23//3
f  19//4 20//4 23//4
f  23//4 20//4 24//4
f  20//5 18//5 22//5
f  24//5 20//5 22//5
f  22//6 21//6 23//6
f  24//6 22//6 23//6
f  25//1 26//1 27//1
f  27//1 26//1 28//1
f  26//2 25//2 29//2
f  30//2 26//2 29//2
f  25//3 27//3 29//3
f  29//3 27//3 31//3
f  27//4 28//4 31//4
f  31//4 28//4 32//4
f  28//5 26//5 30//5
f  32//5 28//5 30//5
f  30//6 29//6 31//6
f  32//6 30//6 31//6
f  33//1 34//1 35//1
f  35//1 34//1 36//1
f  34//2 33//2 37//2
f  38//2 34//2 37//2
f  33//3 35//3 37//3
f  37//3 35//3 39//3
f  35//4 36//4 39//4
f  39//4 36//4 40//4
f  36//5 34//5 38//5
f  40//5 36//5 38//5
f  38//6 37//6 39//6
f  40//6 38//6 39//6
f  41//1 42//1 43//1
f  43//1 42//1 44//1
f  42//2 41//2 45//2
f  46//2 42//2 45//2
f  41//3 43//3 45//3
f  45//3 43//3 47//3
f  43//4 44//4 47//4
f  47//4 44//4 48//4
f  44//5 42//5 46//5
f  48//5 44//5 46//5
f  46//6 45//6 47//6
f  48//6 46//6 47//6
f  49//1 50//1 51//1
f  51//1 50//1 52//1
f  50//2 49//2 53//2
f  54//2 50//2 53//2
f  49//3 51//3 53//3
f  53//3 51//3 55//3
f  51//4 52//4 55//4
f  55//4 52//4 56//4
f  52//5 50//5 54//5
f  56//5 52//5 54//5
f  54//6 53//6 55//6
f  56//6 54//6 55//6
f  57//1 58//1 59//1
f  59//1 58//1 60//1
f  58//2 57//2 61//2
f  62//2 58//2 61//2
f  57//3 59//3 61//3
f  61//3 59//3 63//3
f  59//4 60//4 63//4
f  63//4 60//4 64//4
f  60//5 58//5 62//5
f  64//5 60//5 62//5
f  62//6 61//6 63//6
f  64//6 62//6 63//6
f  65//1 66//1 67//1
f  67//1 66//1 68//1
f  66//2 65//2 69//2
f  70//2 66//2 69//2
f  65//3 67//3 69//3
f  69//3 67//3 71//3
f  67//4 68//4 71//4
f  71//4 68//4 72//4
f  68//5 66//5 70//5
f  72//5 68//5 70//5
f  70//6 69//6 71//6
f  72//6 70//6 71//6
f  73//1 74//1 75//1
f  75//1 74//1 76//1
f  74//2 73//2 77//2
f  78//2 74//2 77//2
f  73//3 75//3 77//3
f  77//3 75//3 79//3
f  75//4 76//4 79//4
f  79//4 76//4 80//4
f  76//5 74//5 78//5
f  80//5 76//5 78//5
f  78//6 77//6 79//6
f  80//6 78//6 79//6
f  81//1 82//1 83//1
f  83//1 82//1 84//1
f  82//2 81//2 85//2
f  86//2 82//2 85//2
f  81//3 83//3 85//3
f  85//3 83//3 87//3
f  83//4 84//4 87//4
f  87//4 84//4 88//4
f  84//5 82//5 86//5
f  88//5 84//5 86//5
f  86//6 85//6 87//6
f  88//6 86//6 87//6
f  89//1 90//1 91//1
f  91//1 90//1 92//1
f  90//2 89//2 93//2
f  94//2 90//2 93//2
f  89//3 91//3 93//3
f  93//3 91//3 95//3
f  91//4 92//4 95//4
f  95//4 92//4 96//4
f  92//5 90//5 94//5
f  96//5 92//5 94//5
f  94//6 93//6 95//6
f  96//6 94//6 95//6
f  97//1 98//1 99//1
f  99//1 98//1 100//1
f  98//2 97//2 101//2
f  102//2 98//2 101//2
f  97//3 99//3 101//3
f  101//3 99//3 103//3
f  99//4 100//4 103//4
f  103//4 100//4 104//4
f  100//5 98//5 102//5
f  104//5 100//5 102//5
f  102//6 101//6 103//6
f  104//6 102//6 103//6
f  105//1 106//1 107//1
f  107//1 106//1 108//1
f  106//2 105//2 109//2
f  110//2 106//2 109//2
f  105//3 107//3 109//3
f  109//3 107//3 111//3
f  107//4 108//4 111//4
f  111//4 108//4 112//4
f  108//5 106//5 110//5
f  112//5 108//5 110//5
f  110//6 109//6 111//6
f  112//6 110//6 111//6
f  113//1 114//1 115//1
f  115//1 114//1 116//1
f  114//2 113//2 117//2
f  118//2 114//2 117//2
f  113//3 115//3 117//3
f  117//3 115//3 119//3
f  115//4 116//4 119//4
f  119//4 116//4 120//4
f  116//5 114//5 118//5
f  120//5 116//5 118//5
f  118//6 117//6 119//6
f  120//6 118//6 119//6
f  121//7 122//7 123//7
f  124//7 121//7 123//7
f  122//8 125//8 123//8
f  123//8 125//8 126//8
f  123//8 126//8 127//8
f  125//9 122//9 121//9
f  128//9 125//9 121//9
f  128//10 121//10 124//10
f  129//10 128//10 130//10
f  130//10 128//10 124//10
f  123//11 127//11 124//11
f  124//11 127//11 130//11
f  126//12 129//12 127//12
f  127//12 129//12 130//12
f  126//13 125//13 128//13
f  129//13 126//13 128//13
f  131//7 132//7 133//7
f  134//7 131//7 133//7
f  132//8 135//8 133//8
f  133//8 135//8 136//8
f  133//8 136//8 137//8
f  135//9 132//9 131//9
f  138//9 135//9 131//9
f  138//10 131//10 134//10
f  139//10 138//10 140//10
f  140//10 138//10 134//10
f  133//11 137//11 134//11
f  134//11 137//11 140//11
f  136//12 139//12 137//12
f  137//12 139//12 140//12
f  136//13 135//13 138//13
f  139//13 136//13 138//13
f  141//7 142//7 143//7
f  144//7 141//7 143//7
f  142//8 145//8 143//8
f  143//8 145//8 146//8
f  143//8 146//8 147//8
f  145//9 142//9 141//9
f  148//9 145//9 141//9
f  148//10 141//10 144//10
f  149//10 148//10 150//10
f  150//10 148//10 144//10
f  143//11 147//11 144//11
f  144//11 147//11 150//11
f  146//12 149//12 147//12
f  147//12 149//12 150//12
f  146//13 145//13 148//13
f  149//13 146//13 148//13
f  151//7 152//7 153//7
f  154//7 151//7 153//7
f  152//8 155//8 153//8
f  153//8 155//8 156//8
f  153//8 156//8 157//8
f  155//9 152//9 151//9
f  158//9 155//9 151//9
f  158//10 151//10 154//10
f  159//10 158//10 160//10
f  160//10 158//10 154//10
f  153//11 157//11 154//11
f  154//11 157//11 160//11
f  156//12 159//12 157//12
f  157//12 159//12 160//12
f  156//13 155//13 158//13
f  159//13 156//13 158//13
f  161//7 162//7 163//7
f  164//7 161//7 163//7
f  162//8 165//8 163//8
f  163//8 165//8 166//8
f  163//8 166//8 167//8
f  165//9 162//9 161//9
f  168//9 165//9 161//9
f  168//10 161//10 164//10
f  169//10 168//10 170//10
f  170//10 168//10 164//10
f  163//11 167//11 164//11
f  164//11 167//11 170//11
f  166//12 169//12 167//12
f  167//12 169//12 170//12
f  166//13 165//13 168//13
f  169//13 166//13 168//13
f  171//7 172//7 173//7
f  174//7 171//7 173//7
f  172//8 175//8 173//8
f  173//8 175//8 176//8
f  173//8 176//8 177//8
f  173//8 177//8 178//8
f  173//8 178//8 179//8
f  175//14 172//14 171//14
f  180//14 175//14 171//14
f  180//10 171//10 174//10
f  181//10 180//10 174//10
f  181//10 182//10 180//10
f  183//10 181//10 174//10
f  184//10 181//10 183//10
f  173//11 179//11 174//11
f  174//11 179//11 183//11
f  178//12 184//12 179//12
f  179//12 184//12 183//12
f  178//15 177//15 181//15
f  184//15 178//15 181//15
f  176//12 182//12 177//12
f  177//12 182//12 181//12
f  176//16 175//16 180//16
f  182//16 176//16 180//16
f  185//7 186//7 187//7
f  188//7 185//7 187//7
f  186//8 189//8 187//8
f  187//8 189//8 190//8
f  187//8 190//8 191//8
f  187//8 191//8 192//8
f  187//8 192//8 193//8
f  189//14 186//14 185//14
f  194//14 189//14 185//14
f  194//10 185//10 188//10
f  195//10 194//10 188//10
f  195//10 196//10 194//10
f  197//10 195//10 188//10
f  198//10 195//10 197//10
f  187//11 193//11 188//11
f  188//11 193//11 197//11
f  192//12 198//12 193//12
f  193//12 198//12 197//12
f  192//15 191//15 195//15
f  198//15 192//15 195//15
f  190//12 196//12 191//12
f  191//12 196//12 195//12
f  190//16 189//16 194//16
f  196//16 190//16 194//16
f  199//7 200//7 201//7
f  202//7 199//7 201//7
f  200//8 203//8 201//8
f  201//8 203//8 204//8
f  201//8 204//8 205//8
f  201//8 205//8 206//8
f  201//8 206//8 207//8
f  203//14 200//14 199//14
f  208//14 203//14 199//14
f  208//10 199//10 202//10
f  209//10 208//10 202//10
f  209//10 210//10 208//10
f  211//10 209//10 202//10
f  212//10 209//10 211//10
f  201//11 207//11 202//11
f  202//11 207//11 211//11
f  206//12 212//12 207//12
f  207//12 212//12 211//12
f  206//15 205//15 209//15
f  212//15 206//15 209//15
f  204//12 210//12 205//12
f  205//12 210//12 209//12
f  204//16 203//16 208//16
f  210//16 204//16 208//16
f  213//7 214//7 215//7
f  216//7 213//7 215//7
f  214//8 217//8 215//8
f  215//8 217//8 218//8
f  215//8 218//8 219//8
f  215//8 219//8 220//8
f  215//8 220//8 221//8
f  217//14 214//14 213//14
f  222//14 217//14 213//14
f  222//10 213//10 216//10
f  223//10 222//10 216//10
f  223//10 224//10 222//10
f  225//10 223//10 216//10
f  226//10 223//10 225//10
f  215//11 221//11 216//11
f  216//11 221//11 225//11
f  220//12 226//12 221//12
f  221//12 226//12 225//12
f  220//15 219//15 223//15
f  226//15 220//15 223//15
f  218//12 224//12 219//12
f  219//12 224//12 223//12
f  218//16 217//16 222//16
f  224//16 218//16 222//16

