# File produced by Open Asset Import Library (http://www.assimp.sf.net)
# (assimp v3.1.187496374)

mtllib settlers_of_catan_house.obj.mtl

# 10 vertex positions
v  -1.44329e-15 5 11.5
v  14 5 11.5
v  14 10 7
v  6.66134e-16 10 7
v  -1.55431e-15 0 7
v  0 0 0
v  2.22045e-15 10 0
v  14 10 3.10862e-15
v  14 -3.10862e-15 7
v  14 -3.10862e-15 3.10862e-15

# 0 UV coordinates

# 7 vertex normals
vn -1.65044e-17 0.668965 0.743294
vn -1 2.22045e-16 -2.22045e-16
vn 2.22045e-16 1 4.93038e-32
vn -3.13584e-16 -0.668965 0.743294
vn 1 -2.22045e-16 2.22045e-16
vn 2.22045e-16 -4.93038e-32 -1
vn -2.22045e-16 -1 -4.93038e-32

# Mesh 'OpenSCAD_Model' with 16 faces
g OpenSCAD_Model
usemtl DefaultMaterial
f  1//1 2//1 3//1
f  4//1 1//1 3//1
f  5//2 1//2 6//2
f  6//2 1//2 4//2
f  6//2 4//2 7//2
f  4//3 3//3 7//3
f  7//3 3//3 8//3
f  5//4 9//4 2//4
f  1//4 5//4 2//4
f  10//5 8//5 3//5
f  9//5 10//5 2//5
f  2//5 10//5 3//5
f  7//6 8//6 6//6
f  6//6 8//6 10//6
f  6//7 10//7 9//7
f  5//7 6//7 9//7

