# File produced by Open Asset Import Library (http://www.assimp.sf.net)
# (assimp v3.1.187496374)

mtllib Brick_Bottom.obj.mtl

# 15 vertex positions
v  0 25.196 2
v  0 0 0
v  0 0 2
v  0 25.194 0
v  25.3999 0 2
v  25.3999 0 0
v  12.748 29.4279 1.596
v  25.3999 17.63 0.63
v  25.3999 17.63 0
v  25.3999 17.63 1.372
v  25.3999 17.63 2
v  20.53 22.172 1
v  12.748 29.4259 0.408
v  12.748 29.4279 2
v  12.748 29.4259 0

# 0 UV coordinates

# 17 vertex normals
vn -1 0 0
vn 0 -1 0
vn -0.315093 0.94906 -0.000949444
vn 1 0 0
vn 0.681906 0.731439 -0.00123188
vn 0.681956 0.731393 1.00179e-14
vn -0.315066 0.94907 0
vn -0.31502 0.949084 -0.00159843
vn 0.681856 0.731487 -9.82366e-15
vn -0.315066 0.94907 1.18742e-15
vn 0.682051 0.731305 -2.31394e-17
vn 0.682051 0.731305 -1.32313e-15
vn 0.682051 0.731305 -1.31474e-15
vn 0.681993 0.731359 0.000528461
vn 0.681931 0.731416 -0.0010918
vn 0 0 1
vn 0 0 -1

# Mesh '<STL_BINARY>' with 26 faces
g <STL_BINARY>
usemtl DefaultMaterial
f  1//1 2//1 3//1
f  2//1 1//1 4//1
f  5//2 2//2 6//2
f  2//2 5//2 3//2
f  1//3 7//3 4//3
f  8//4 5//4 6//4
f  8//4 6//4 9//4
f  10//4 5//4 8//4
f  11//4 5//4 10//4
f  7//5 12//5 13//5
f  14//6 12//6 7//6
f  14//7 7//7 1//7
f  7//8 13//8 4//8
f  12//9 15//9 13//9
f  13//10 15//10 4//10
f  10//11 8//11 12//11
f  11//12 10//11 12//11
f  12//11 8//11 9//13
f  11//14 12//14 14//14
f  12//15 9//15 15//15
f  5//16 1//16 3//16
f  1//16 5//16 14//16
f  14//16 5//16 11//16
f  15//17 2//17 4//17
f  2//17 15//17 6//17
f  6//17 15//17 9//17

