# File produced by Open Asset Import Library (http://www.assimp.sf.net)
# (assimp v3.1.187496374)

mtllib Brick_Top.obj.mtl

# 84 vertex positions
v  20.662 6.162 3
v  20.436 6 2
v  20.662 6.162 2
v  21.612 6.924 2
v  19.48 5.306 3
v  22.714 8.088 3
v  21.92 7.168 2
v  22.714 8.088 2
v  21.92 7.168 3
v  23.138 8.988 3
v  23.138 8.988 2
v  23.28 9.93 3
v  23.28 9.93 2
v  23.156 10.79 3
v  23.156 10.79 2
v  22.786 11.564 3
v  22.786 11.564 2
v  22.202 12.202 3
v  22.202 12.202 2
v  21.434 12.646 3
v  21.434 12.646 2
v  19.094 12.99 2
v  20.004 10.652 3
v  19.752 10.748 2
v  20.004 10.652 2
v  20.36 9.828 2
v  20.36 9.828 3
v  20 8.886 2
v  20 8.886 3
v  19.752 8.668 2
v  18.354 7.434 3
v  19.108 10.994 3
v  19.03 13 3
v  19.03 13 2
v  16.71 12.63 3
v  16.71 12.63 2
v  16.342 12.326 2
v  15.414 11.564 3
v  18.354 7.434 2
v  16.608 6 2
v  16.582 5.978 3
v  18.192 10.642 3
v  17.714 9.396 2
v  18.192 10.642 2
v  17.714 9.396 3
v  19.108 10.994 2
v  14.78 9.634 3
v  18.778 4.666 3
v  23.352 2.28 3
v  14.564 2.28 3
v  15.482 4.728 3
v  14.87 3.542 3
v  23.352 4.666 3
v  14.78 9.634 2
v  23.352 4.666 2
v  18.778 4.666 2
v  19.48 5.306 2
v  16.582 5.978 2
v  16.342 5.704 2
v  23.352 2.28 2
v  7.29 8.542 5.5
v  2.676 13.126 2
v  7.596 7.516 2
v  2.5 13.724 4.036
v  14.564 2.28 2
v  15.156 24.818 2.414
v  19.946 19.634 3.878
v  13.358 23.002 2
v  20.11 19.084 2
v  19.658 19.6 2
v  16.342 23.386 2
v  16.676 23.002 2
v  16.162 23.59 2
v  14.564 13.956 2
v  4.09 14.434 2
v  15.19 24.698 2
v  14.564 24.116 2
v  14.87 3.542 2
v  15.414 11.564 2
v  7.596 17.674 2
v  13.788 23.4 2
v  15.45 4.666 2
v  15.656 11.764 2
v  15.482 4.728 2

# 0 UV coordinates

# 77 vertex normals
vn 0.582595 -0.812762 -1.64361e-17
vn 0.625697 -0.780066 5.71382e-17
vn 0.586539 -0.80992 -0.00135192
vn 0.757046 -0.653362 0
vn 0.757046 -0.653362 -5.91271e-17
vn 0.624543 -0.780989 -0.00179948
vn 0.620961 -0.783842 -1.70691e-17
vn 0.904637 -0.426184 0
vn 0.988828 -0.149061 0
vn 0.989764 0.142711 -1.10582e-17
vn 0.902214 0.43129 -2.4889e-17
vn 0.902214 0.43129 0
vn 0.737632 0.675203 -1.19795e-16
vn 0.737632 0.675203 0
vn 0.500504 0.865734 0
vn 0.500504 0.865734 4.85148e-17
vn 0.145445 0.989366 0
vn -0.355996 -0.934488 7.59987e-18
vn -0.917989 -0.396606 0
vn -0.917989 -0.396606 4.46882e-17
vn -0.93411 0.356985 -3.47941e-17
vn -0.93411 0.356985 0
vn -0.660222 0.75107 1.26138e-17
vn -0.661531 0.749917 0.000575978
vn -0.356602 -0.934256 0.000175056
vn 0.145684 0.989331 -0.000569906
vn 0.154382 0.988011 -9.73269e-19
vn -0.157493 0.98752 0
vn -0.636881 0.770962 2.35211e-17
vn -0.635247 0.772308 -0.00101084
vn -0.634683 0.772772 1.34058e-16
vn -0.661763 0.749713 -1.01433e-16
vn -0.634851 0.772634 0.00049121
vn 0.933654 -0.358176 1.19264e-16
vn 0.933654 -0.358176 0
vn 0.358706 -0.933451 -3.67714e-17
vn 0.358706 -0.933451 -7.35428e-17
vn -0.35684 -0.934166 -1.86123e-17
vn 0 0 1
vn -0.0808524 -0.996726 -3.06165e-17
vn -0.0808524 -0.996726 0
vn 0 1 0
vn 0.67372 -0.738986 4.95647e-17
vn 0.587466 -0.809249 0
vn -0.645928 0.763398 0
vn -0.752239 0.65889 0
vn -0.750714 0.660627 -0.000842143
vn 1 0 0
vn -0.745885 -0.653906 0.126736
vn 0 -1 0
vn -0.0642808 0.215801 0.974319
vn -0.654735 0.708364 -0.263708
vn 0.746195 0.653643 -0.126267
vn 0.747557 0.650217 -0.13556
vn 0.745985 0.653888 -0.126239
vn 0.744743 0.657132 -0.116344
vn 0.654709 -0.708077 0.264544
vn 0.654504 -0.708164 0.264817
vn -0.654864 0.707935 -0.264537
vn -0.657654 0.707379 -0.25905
vn 0.745518 0.654011 -0.128343
vn -0.971839 0.235647 -4.03381e-17
vn 0.746104 0.653763 -0.126184
vn -0.950053 0.312089 6.74424e-17
vn -0.950053 0.312089 0
vn -0.654639 0.707963 -0.265022
vn -0.654585 0.708326 -0.264183
vn -0.653595 0.708363 -0.266523
vn -0.655938 0.708676 -0.259852
vn -0.888663 0.458561 0
vn -0.88866 0.458566 7.33188e-06
vn 0.654529 -0.708064 0.265023
vn -0.633728 0.773555 0.00134874
vn -0.750286 0.661113 -1.04135e-16
vn -0.888612 0.45866 3.73085e-18
vn -0.637046 0.770826 0
vn 0 0 -1

# Mesh '<STL_BINARY>' with 160 faces
g <STL_BINARY>
usemtl DefaultMaterial
f  1//1 2//1 3//1
f  1//2 3//2 4//2
f  5//3 2//3 1//3
f  6//4 7//4 8//4
f  6//4 9//5 7//4
f  1//6 4//6 9//6
f  9//7 4//7 7//7
f  10//8 6//8 8//8
f  10//8 8//8 11//8
f  12//9 10//9 11//9
f  12//9 11//9 13//9
f  14//10 12//10 13//10
f  14//10 13//10 15//10
f  16//11 14//11 15//11
f  16//11 15//11 17//12
f  18//13 16//13 17//13
f  18//13 17//13 19//14
f  18//15 19//15 20//15
f  20//15 19//15 21//16
f  20//17 21//17 22//17
f  23//18 24//18 25//18
f  25//19 26//19 27//19
f  25//19 27//19 23//20
f  26//21 28//21 29//21
f  26//21 29//21 27//22
f  29//23 28//23 30//23
f  29//24 30//24 31//24
f  32//25 24//25 23//25
f  20//26 22//26 33//26
f  33//27 22//27 34//27
f  33//28 34//28 35//28
f  35//28 34//28 36//28
f  35//29 36//29 37//29
f  35//30 37//30 38//30
f  31//31 39//31 40//31
f  31//32 30//32 39//32
f  31//33 40//33 41//33
f  42//34 43//34 44//34
f  42//34 45//35 43//34
f  32//36 44//36 46//36
f  42//37 44//36 32//36
f  32//38 46//38 24//38
f  42//39 38//39 45//39
f  42//39 35//39 38//39
f  32//39 35//39 42//39
f  45//39 38//39 47//39
f  32//39 33//39 35//39
f  20//39 32//39 23//39
f  20//39 33//39 32//39
f  18//39 20//39 23//39
f  16//39 23//39 27//39
f  16//39 18//39 23//39
f  14//39 16//39 27//39
f  12//39 27//39 10//39
f  12//39 14//39 27//39
f  10//39 27//39 6//39
f  6//39 27//39 29//39
f  6//39 29//39 9//39
f  1//39 29//39 31//39
f  9//39 29//39 1//39
f  1//39 31//39 5//39
f  5//39 31//39 48//39
f  48//39 31//39 41//39
f  49//39 48//39 50//39
f  48//39 41//39 51//39
f  48//39 51//39 52//39
f  53//39 48//39 49//39
f  48//39 52//39 50//39
f  45//40 54//40 43//40
f  47//41 54//40 45//40
f  48//42 55//42 56//42
f  53//42 55//42 48//42
f  5//43 56//43 57//43
f  48//43 56//43 5//43
f  5//44 57//44 2//44
f  41//45 40//45 58//45
f  58//46 59//46 41//46
f  41//47 59//47 51//47
f  53//48 49//48 55//48
f  55//48 49//48 60//48
f  61//49 62//49 63//49
f  62//49 61//49 64//49
f  50//50 65//50 60//50
f  50//50 60//50 49//50
f  61//51 66//51 64//51
f  66//51 61//51 67//51
f  64//52 66//52 68//52
f  67//53 69//53 70//53
f  71//54 67//54 72//54
f  72//55 67//55 70//55
f  73//56 67//56 71//56
f  67//57 74//57 69//57
f  61//58 63//58 74//58
f  64//59 75//59 62//59
f  66//60 76//60 77//60
f  66//61 73//61 76//61
f  78//62 65//62 50//62
f  78//62 50//62 52//62
f  66//63 67//63 73//63
f  79//64 54//64 38//64
f  38//64 54//64 47//65
f  64//66 68//66 80//66
f  64//67 80//67 75//67
f  66//68 77//68 81//68
f  66//69 81//69 68//69
f  82//70 78//70 52//70
f  51//71 82//70 52//70
f  61//72 74//72 67//72
f  38//73 37//73 83//73
f  59//74 84//74 51//74
f  84//75 82//75 51//75
f  38//76 83//76 79//76
f  75//77 63//77 62//77
f  63//77 75//77 80//77
f  63//77 80//77 68//77
f  63//77 68//77 74//77
f  74//77 68//77 81//77
f  74//77 81//77 77//77
f  74//77 77//77 76//77
f  74//77 76//77 72//77
f  74//77 72//77 69//77
f  72//77 76//77 73//77
f  72//77 73//77 71//77
f  69//77 72//77 70//77
f  79//77 43//77 54//77
f  43//77 79//77 83//77
f  43//77 83//77 37//77
f  43//77 37//77 36//77
f  43//77 36//77 34//77
f  43//77 34//77 44//77
f  44//77 34//77 46//77
f  46//77 34//77 22//77
f  46//77 22//77 21//77
f  46//77 21//77 24//77
f  24//77 21//77 25//77
f  25//77 21//77 26//77
f  26//77 21//77 2//77
f  2//77 21//77 3//77
f  3//77 21//77 4//77
f  4//77 21//77 19//77
f  2//77 28//77 26//77
f  57//77 30//77 2//77
f  2//77 30//77 28//77
f  56//77 30//77 57//77
f  30//77 56//77 39//77
f  60//77 59//77 56//77
f  56//77 59//77 58//77
f  56//77 58//77 40//77
f  56//77 40//77 39//77
f  60//77 56//77 55//77
f  60//77 84//77 59//77
f  78//77 60//77 65//77
f  60//77 78//77 82//77
f  60//77 82//77 84//77
f  4//77 19//77 7//77
f  7//77 19//77 8//77
f  8//77 19//77 17//77
f  8//77 17//77 11//77
f  11//77 17//77 15//77
f  11//77 15//77 13//77

