# File produced by Open Asset Import Library (http://www.assimp.sf.net)
# (assimp v3.1.187496374)

mtllib Ore_Bottom.obj.mtl

# 15 vertex positions
v  0 25.198 2
v  12.75 29.4299 1.596
v  0 25.196 0
v  0 0 2
v  0 0 0
v  25.4 17.632 2
v  25.4 0 2
v  25.4 17.632 1.372
v  25.4 17.632 0.63
v  25.4 0 0
v  25.4 17.632 0
v  20.53 22.174 1
v  12.75 29.4299 2
v  12.75 29.4279 0
v  12.75 29.4279 0.408

# 0 UV coordinates

# 15 vertex normals
vn -0.315048 0.949075 -0.000948554
vn -1 0 0
vn 1 0 0
vn 0.68205 0.731305 1.19399e-16
vn 0.68205 0.731305 1.32312e-15
vn 0.68205 0.731305 0
vn 0.68205 0.731305 -5.01091e-15
vn 0.68195 0.731399 0
vn 0.681999 0.731352 -0.00123056
vn -0.314975 0.949099 -0.00159693
vn -0.315021 0.949085 0
vn 0 -1 0
vn 0 0 -1
vn 0.681988 0.731363 -0.000563423
vn 0 0 1

# Mesh '<STL_BINARY>' with 26 faces
g <STL_BINARY>
usemtl DefaultMaterial
f  1//1 2//1 3//1
f  1//2 3//2 4//2
f  3//2 5//2 4//2
f  6//3 7//3 8//3
f  8//3 7//3 9//3
f  9//3 7//3 10//3
f  9//3 10//3 11//3
f  8//4 9//4 12//4
f  6//5 8//4 12//4
f  12//4 9//4 11//6
f  13//7 12//4 2//7
f  6//5 12//4 13//7
f  12//8 14//8 15//8
f  2//9 12//9 15//9
f  2//10 15//10 3//10
f  13//11 2//11 1//11
f  15//11 14//11 3//11
f  7//12 5//12 10//12
f  4//12 5//12 7//12
f  14//13 5//13 3//13
f  5//13 14//13 10//13
f  10//13 14//13 11//13
f  12//14 11//14 14//14
f  7//15 1//15 4//15
f  1//15 7//15 13//15
f  13//15 7//15 6//15

