# File produced by Open Asset Import Library (http://www.assimp.sf.net)
# (assimp v3.1.187496374)

mtllib Ore_Top.obj.mtl

# 121 vertex positions
v  23.28 9.932 3
v  23.14 8.99 3
v  23.206 9.436 2
v  20.36 9.832 2
v  20.002 8.89 3
v  20.36 9.832 3
v  20.002 8.89 2
v  22.716 8.092 3
v  21.92 7.17 3
v  21.92 7.17 2
v  22.716 8.092 2
v  23.14 8.99 2
v  23.28 9.932 2
v  23.156 10.792 3
v  23.156 10.792 2
v  22.788 11.568 3
v  22.788 11.568 2
v  22.204 12.202 3
v  22.204 12.202 2
v  21.436 12.648 3
v  21.436 12.648 2
v  19.096 12.992 2
v  20.006 10.654 3
v  19.754 10.75 2
v  20.006 10.654 2
v  19.754 8.67 2
v  18.354 7.438 3
v  19.11 10.994 3
v  19.03 13.002 3
v  19.03 13.002 2
v  16.712 12.632 3
v  16.712 12.632 2
v  16.344 12.33 2
v  15.414 11.568 3
v  18.354 7.438 2
v  16.584 5.98 3
v  16.584 5.98 2
v  17.716 9.398 3
v  16.344 9.51 2
v  17.716 9.398 2
v  16.398 5.77 2
v  16.344 5.708 2
v  18.194 10.642 3
v  18.194 10.642 2
v  14.782 9.638 3
v  19.11 10.994 2
v  23.352 2.282 3
v  14.87 3.544 3
v  14.566 2.282 3
v  15.482 4.73 3
v  18.78 4.668 3
v  23.352 4.668 3
v  19.48 5.306 3
v  20.662 6.164 3
v  23.352 4.668 2
v  18.78 4.668 2
v  19.48 5.306 2
v  20.116 5.77 2
v  15.658 11.766 2
v  16.546 21.286 2.004
v  16.236 21.648 2.004
v  15.638 14.716 4.036
v  15.414 11.568 2
v  14.782 9.638 2
v  15.658 9.566 2
v  23.352 2.282 2
v  14.566 2.282 2
v  11.1 26.1979 2.004
v  11.036 26.28 2.004
v  10.296 14.716 5.002
v  7.24 20.482 2.004
v  15.348 20.144 2.14
v  7.062 14.716 3.582
v  10.58 14.716 2.004
v  14.672 14.716 3.648
v  6.09 14.716 4.04
v  1.758 14.716 2.004
v  11.8539 14.716 2.002
v  21.87 14.716 2.004
v  9.9579 14.716 2.002
v  22.002 14.716 2.056
v  18.4304 14.716 2.002
v  20.3656 14.716 2.002
v  18.3747 14.716 2.002
v  16.2204 14.716 2.002
v  13.9404 14.716 2.002
v  13.3135 14.716 2.002
v  12.2191 14.716 2.002
v  6.104 22.536 2.004
v  4.7845 20.1617 2.002
v  5.3484 21.1764 2.002
v  17.7061 19.8543 2.002
v  14.87 3.544 2
v  20.662 6.164 2
v  15.45 4.668 2
v  15.482 4.73 2
v  16.0385 20.9118 2.002
v  15.9089 21.2475 2.002
v  19.312 16.7515 2.002
v  15.8878 21.2216 2.002
v  15.024 20.164 2.004
v  15.5186 20.5286 2.003
v  16.8466 18.7135 2.002
v  16.0133 20.8933 2.002
v  16.0385 20.8275 2.002
v  16.9051 18.667 2.002
v  17.2399 17.7998 2.002
v  17.1959 17.7998 2.002
v  11.1138 15.3704 2.002
v  9.2422 17.0254 2.002
v  11.8575 16.2821 2.002
v  11.649 16.0265 2.002
v  14.9553 20.0798 2.002
v  7.987 19.1924 2.002
v  11.2548 15.5432 2.002
v  6.8365 20.0575 2.002
v  6.7048 19.9191 2.002
v  5.8596 19.03 2.002
v  14.8851 20.3775 2.002
v  14.9346 20.1676 2.002
v  14.9862 20.1176 2.0029

# 0 UV coordinates

# 91 vertex normals
vn 0.989136 -0.147005 -0.000279299
vn -0.93477 0.355253 -3.48186e-17
vn -0.93477 0.355253 0
vn 0.756934 -0.653492 0
vn 0.904271 -0.426959 3.70641e-17
vn 0.904271 -0.426959 7.41282e-17
vn 0.989227 -0.146392 -5.13674e-18
vn 0.989054 -0.147556 8.30518e-18
vn 0.989765 0.142706 1.10582e-17
vn 0.989765 0.142706 0
vn 0.903548 0.428486 1.23987e-16
vn 0.903548 0.428486 0
vn 0.735512 0.677512 -6.04815e-17
vn 0.735512 0.677512 0
vn 0.502193 0.864755 0
vn 0.145444 0.989366 0
vn -0.355999 -0.934486 -7.59986e-18
vn -0.91845 -0.395538 -4.49286e-17
vn -0.91845 -0.395538 0
vn -0.663614 0.748075 -2.5127e-17
vn -0.661079 0.750315 -0.0011216
vn -0.35478 -0.93495 -0.000351574
vn 0.145563 0.989349 -0.000284369
vn 0.149777 0.98872 9.15757e-19
vn -0.157625 0.987499 -9.71943e-17
vn -0.157625 0.987499 0
vn -0.634379 0.773022 -2.35839e-17
vn -0.633951 0.773373 -0.000263326
vn -0.660628 0.750713 1.01278e-16
vn -0.635799 0.771855 1.30292e-16
vn -0.0813645 -0.996684 8.75046e-18
vn -0.748585 0.663038 -1.75334e-17
vn -0.754099 0.656757 0.00234467
vn 0.933462 -0.358677 -7.97487e-17
vn 0.933462 -0.358677 0
vn -0.0815279 -0.996671 0.000225639
vn 0.358703 -0.933452 0
vn -0.354303 -0.935131 1.86316e-17
vn 7.41394e-32 -8.12407e-32 1
vn 0 1 0
vn 0.673617 -0.739081 -4.98545e-17
vn 0.673617 -0.739081 4.98545e-17
vn 0.589379 -0.807857 3.30064e-17
vn -0.635076 0.772447 -0.00201513
vn 0.287792 0.24645 0.925439
vn -0.63011 0.776506 1.34718e-17
vn -0.950344 0.311201 -6.74631e-17
vn -0.081914 -0.996639 -1.0732e-17
vn -0.0813615 -0.996685 0.000487214
vn 1 0 0
vn 0 -1 0
vn 0.286075 0.223274 0.931831
vn -0.38865 0.254452 0.885553
vn 0.287993 0.223002 0.931306
vn -0.388815 0.254344 0.885512
vn 0.414996 0.228222 0.880734
vn 0.288156 0.222844 0.931293
vn 0.413533 0.228712 0.881295
vn -0.414018 0.230235 0.880671
vn 0.288177 0.247648 0.925
vn -0.972191 0.234189 4.03527e-17
vn -0.972191 0.234189 0
vn 0.624543 -0.780991 -6.52457e-17
vn 0.624543 -0.780991 -1.30491e-16
vn 0.585168 -0.810912 0
vn 0.587439 -0.809267 -0.0018883
vn -0.750118 0.661304 0.000152251
vn -0.888662 0.458563 4.6499e-17
vn -0.88866 0.458567 4.67864e-06
vn -0.888629 0.458626 0
vn -0.35658 0.291048 0.887773
vn -0.356903 0.290992 0.887662
vn -0.750195 0.661217 -5.18484e-17
vn 0.351389 0.284401 -0.891987
vn 0.00291003 0.00195258 -0.999994
vn 0.00132946 0.0006881 -0.999999
vn -0.356097 0.291311 0.887881
vn -0.00157707 -0.000602875 -0.999999
vn 0.00163443 0.00135436 -0.999998
vn 0 0 -1
vn -0.00156987 -0.00177535 -0.999997
vn 0.38995 0.253732 -0.885189
vn -0.000243902 -0.000231707 -1
vn -1.38676e-31 2.49993e-31 -1
vn 0.00130134 0.00105147 -0.999999
vn 0.00206604 0.0027477 -0.999994
vn -0.000171362 -0.000279858 -1
vn 0.022591 0.00532835 -0.999731
vn -0.000256039 0.000172701 -1
vn -0.000152683 0.000208112 -1
vn -0.000172703 9.62979e-05 -1

# Mesh '<STL_BINARY>' with 236 faces
g <STL_BINARY>
usemtl DefaultMaterial
f  1//1 2//1 3//1
f  4//2 5//2 6//2
f  4//2 7//3 5//2
f  8//4 9//4 10//4
f  8//4 10//4 11//4
f  2//5 8//5 11//5
f  2//5 11//5 12//6
f  3//7 2//7 12//7
f  1//8 3//8 13//8
f  14//9 1//9 13//9
f  14//9 13//9 15//10
f  16//11 14//11 15//11
f  16//11 15//11 17//12
f  18//13 16//13 17//13
f  18//13 17//13 19//14
f  18//15 19//15 20//15
f  20//15 19//15 21//15
f  20//16 21//16 22//16
f  23//17 24//17 25//17
f  25//18 4//18 6//18
f  25//18 6//18 23//19
f  5//20 7//20 26//20
f  5//21 26//21 27//21
f  28//22 24//22 23//22
f  20//23 22//23 29//23
f  29//24 22//24 30//24
f  29//25 30//25 31//25
f  31//25 30//25 32//26
f  31//27 32//27 33//27
f  31//28 33//28 34//28
f  27//29 26//29 35//29
f  36//30 35//30 37//30
f  27//30 35//30 36//30
f  38//31 39//31 40//31
f  37//32 41//32 36//32
f  36//33 41//33 42//33
f  43//34 38//34 40//34
f  43//34 40//34 44//35
f  45//36 39//36 38//36
f  28//37 44//37 46//37
f  43//37 44//37 28//37
f  28//38 46//38 24//38
f  47//39 48//39 49//39
f  48//39 47//39 50//39
f  50//39 47//39 51//39
f  51//39 47//39 52//39
f  50//39 51//39 36//39
f  36//39 51//39 27//39
f  51//39 5//39 27//39
f  5//39 51//39 53//39
f  5//39 53//39 54//39
f  5//39 54//39 6//39
f  20//39 6//39 54//39
f  20//39 54//39 9//39
f  20//39 23//39 6//39
f  29//39 28//39 20//39
f  20//39 28//39 23//39
f  20//39 9//39 18//39
f  18//39 9//39 8//39
f  18//39 8//39 16//39
f  16//39 8//39 2//39
f  16//39 2//39 14//39
f  14//39 2//39 1//39
f  29//39 43//39 28//39
f  29//39 38//39 43//39
f  31//39 38//39 29//39
f  38//39 34//39 45//39
f  34//39 38//39 31//39
f  51//40 55//40 56//40
f  52//40 55//40 51//40
f  53//41 56//41 57//41
f  51//42 56//41 53//41
f  53//43 57//43 58//43
f  34//44 33//44 59//44
f  60//45 61//45 62//45
f  34//46 59//46 63//46
f  63//47 45//47 34//47
f  63//47 64//47 45//47
f  45//48 64//48 65//48
f  45//49 65//49 39//49
f  55//50 47//50 66//50
f  52//50 47//50 55//50
f  47//51 67//51 66//51
f  49//51 67//51 47//51
f  68//52 69//52 70//52
f  69//53 71//53 70//53
f  72//54 68//54 70//54
f  70//55 71//55 73//55
f  70//51 73//51 74//51
f  70//51 74//51 75//51
f  76//51 77//51 73//51
f  77//51 74//51 73//51
f  78//51 79//51 74//51
f  74//51 79//51 75//51
f  74//51 77//51 80//51
f  62//51 75//51 79//51
f  62//51 79//51 81//51
f  79//51 82//51 83//51
f  82//51 79//51 84//51
f  84//51 79//51 85//51
f  85//51 79//51 86//51
f  86//51 79//51 87//51
f  87//51 79//51 88//51
f  88//51 79//51 78//51
f  71//56 76//56 73//56
f  72//57 70//57 75//57
f  71//58 89//58 76//58
f  76//59 90//59 77//59
f  90//59 76//59 91//59
f  91//59 76//59 89//59
f  62//60 92//60 60//60
f  92//60 62//60 81//60
f  48//61 67//61 49//61
f  93//62 67//61 48//61
f  54//63 10//63 9//63
f  54//63 94//64 10//63
f  54//65 58//65 94//65
f  53//66 58//66 54//66
f  36//67 42//67 50//67
f  95//68 93//68 48//68
f  50//69 95//68 48//68
f  96//70 95//70 50//70
f  62//71 72//71 75//71
f  61//72 72//72 62//72
f  42//73 96//73 50//73
f  81//74 79//74 92//74
f  61//75 97//75 98//75
f  97//75 61//75 60//75
f  79//76 99//76 92//76
f  79//76 83//76 99//76
f  72//77 100//77 101//77
f  100//77 72//77 61//77
f  100//77 61//77 98//77
f  102//78 103//78 101//78
f  103//78 102//78 104//78
f  104//78 102//78 100//78
f  100//78 102//78 101//78
f  103//78 104//78 105//78
f  60//79 106//79 97//79
f  106//79 60//79 92//79
f  106//79 92//79 99//79
f  99//80 107//80 106//80
f  107//80 99//80 82//80
f  82//80 99//80 83//80
f  108//80 106//80 107//80
f  107//80 84//80 108//80
f  84//80 107//80 82//80
f  106//80 105//80 97//80
f  105//80 106//80 103//80
f  106//80 108//80 103//80
f  105//80 104//80 97//80
f  104//80 98//80 97//80
f  104//80 98//80 97//80
f  98//80 104//80 100//80
f  98//80 104//80 100//80
f  78//81 74//81 109//81
f  109//81 74//81 110//81
f  111//80 87//80 112//80
f  87//80 111//80 86//80
f  113//80 86//80 111//80
f  112//80 114//80 111//80
f  88//80 112//80 87//80
f  112//80 88//80 115//80
f  116//80 112//80 117//80
f  112//80 116//80 114//80
f  88//80 78//80 115//80
f  78//80 109//80 115//80
f  118//80 91//80 116//80
f  118//80 116//80 117//80
f  91//80 118//80 90//80
f  86//80 113//80 85//80
f  72//82 119//82 68//82
f  119//82 72//82 101//82
f  68//80 71//80 69//80
f  118//83 77//83 90//83
f  80//83 77//83 118//83
f  63//84 65//84 64//84
f  65//84 63//84 59//84
f  65//84 59//84 33//84
f  65//84 33//84 39//84
f  39//84 33//84 32//84
f  39//84 32//84 40//84
f  40//84 32//84 30//84
f  40//84 30//84 44//84
f  44//84 30//84 46//84
f  46//84 30//84 22//84
f  46//84 22//84 21//84
f  46//84 21//84 24//84
f  24//84 21//84 25//84
f  25//84 21//84 4//84
f  4//84 21//84 94//84
f  94//84 21//84 10//84
f  10//84 21//84 19//84
f  58//84 7//84 4//84
f  58//84 4//84 94//84
f  57//84 26//84 58//84
f  58//84 26//84 7//84
f  56//84 26//84 57//84
f  26//84 56//84 35//84
f  66//84 41//84 56//84
f  56//84 41//84 37//84
f  56//84 37//84 35//84
f  66//84 56//84 55//84
f  66//84 42//84 41//84
f  66//84 96//84 42//84
f  93//84 66//84 67//84
f  66//84 93//84 95//84
f  66//84 95//84 96//84
f  10//84 19//84 11//84
f  11//84 19//84 17//84
f  11//84 17//84 12//84
f  12//84 17//84 15//84
f  12//84 15//84 3//84
f  3//84 15//84 13//84
f  89//85 116//85 91//85
f  116//85 89//85 71//85
f  114//86 116//86 71//86
f  112//87 110//87 117//87
f  110//87 112//87 115//87
f  110//87 115//87 109//87
f  80//87 117//87 110//87
f  80//87 110//87 74//87
f  117//87 80//87 118//87
f  101//88 120//88 119//88
f  120//88 101//88 121//88
f  121//88 113//88 120//88
f  68//89 120//89 71//89
f  120//89 68//89 119//89
f  120//90 114//90 71//90
f  114//90 120//90 111//90
f  111//90 120//90 113//90
f  121//91 85//91 113//91
f  85//91 121//91 101//91
f  85//91 101//91 103//91
f  85//91 103//91 108//91
f  85//91 108//91 84//91

