# File produced by Open Asset Import Library (http://www.assimp.sf.net)
# (assimp v3.1.187496374)

mtllib Wheat_Bottom.obj.mtl

# 16 vertex positions
v  12.75 29.4259 0
v  0 0 0
v  0 25.1939 0
v  25.4 0 0
v  25.4 17.63 0
v  25.4 17.63 0.63
v  25.4 6.962 2
v  25.4 17.63 1.372
v  25.4 17.63 2
v  25.4 0 2
v  20.53 22.172 1
v  0 0 2
v  0 25.1959 2
v  12.75 29.4279 2
v  12.75 29.4279 1.596
v  12.75 29.4259 0.408

# 0 UV coordinates

# 17 vertex normals
vn 0 0 -1
vn 1 0 0
vn 0.681988 0.731363 -0.000563423
vn -1 0 0
vn 0 -1 0
vn 0.68205 0.731305 -7.95996e-17
vn 0.68205 0.731305 0
vn 0.68205 0.731305 1.31474e-15
vn 0.68205 0.731305 6.11363e-07
vn 0.68205 0.731305 -5.01091e-15
vn 0.68195 0.731399 0
vn 0.681999 0.731352 -0.00123056
vn 0 0 1
vn -0.315022 0.949084 1.18706e-15
vn -0.314975 0.949099 -0.00159693
vn -0.315021 0.949085 1.21069e-15
vn -0.315048 0.949075 -0.000950364

# Mesh '<STL_BINARY>' with 28 faces
g <STL_BINARY>
usemtl DefaultMaterial
f  1//1 2//1 3//1
f  2//1 1//1 4//1
f  4//1 1//1 5//1
f  6//2 7//2 5//2
f  8//2 7//2 6//2
f  9//2 7//2 8//2
f  5//2 7//2 4//2
f  7//2 10//2 4//2
f  11//3 5//3 1//3
f  3//4 2//4 12//4
f  13//4 3//4 12//4
f  12//5 2//5 4//5
f  12//5 4//5 10//5
f  8//6 6//6 11//6
f  9//7 8//6 11//6
f  11//6 6//6 5//8
f  9//7 11//6 14//9
f  14//9 11//6 15//10
f  11//11 1//11 16//11
f  15//12 11//12 16//12
f  10//13 13//13 12//13
f  13//13 10//13 14//13
f  14//13 10//13 9//13
f  9//13 10//13 7//13
f  16//14 1//14 3//14
f  15//15 16//15 3//15
f  14//16 15//16 13//16
f  13//17 15//17 3//17

