# File produced by Open Asset Import Library (http://www.assimp.sf.net)
# (assimp v3.1.187496374)

mtllib Wood_Top.obj.mtl

# 89 vertex positions
v  18.192 10.642 3
v  17.714 9.4 2
v  18.192 10.642 2
v  17.714 9.4 3
v  19.108 10.996 3
v  19.108 10.996 2
v  19.752 10.75 2
v  18.354 7.436 3
v  20 8.89 2
v  18.354 7.436 2
v  20 8.89 3
v  20.004 10.654 3
v  23.352 2.28 3
v  14.87 3.544 3
v  14.564 2.28 3
v  15.482 4.728 3
v  18.778 4.666 3
v  23.352 4.666 3
v  16.582 5.98 3
v  19.48 5.306 3
v  20.662 6.164 3
v  20.36 9.832 3
v  21.434 12.65 3
v  21.92 7.17 3
v  19.03 13.002 3
v  22.202 12.202 3
v  22.714 8.09 3
v  22.786 11.568 3
v  23.138 8.99 3
v  23.156 10.794 3
v  23.28 9.932 3
v  16.71 12.63 3
v  15.414 11.568 3
v  14.78 9.638 3
v  23.352 4.666 2
v  18.778 4.666 2
v  19.48 5.306 2
v  19.796 5.538 2
v  21.612 6.926 2
v  21.92 7.17 2
v  22.714 8.09 2
v  14.78 9.638 2
v  15.656 9.566 2
v  16.342 9.51 2
v  16.192 5.538 2
v  15.482 4.728 2
v  15.45 4.666 2
v  16.342 5.706 2
v  14.87 3.544 2
v  14.564 2.28 2
v  23.352 2.28 2
v  3 10.668 3.826
v  3 10.668 2.928
v  6.61 10.668 3.826
v  3 10.668 2.026
v  6.61 10.668 2.026
v  5.5 17.418 3.826
v  8 24.168 2.928
v  8 24.168 3.826
v  5.5 17.418 2.026
v  8 24.168 2.026
v  9.388 9.002 3.826
v  6.61 9.002 3.826
v  9.388 10.668 3.826
v  10.5 17.418 3.826
v  13 10.668 3.826
v  9.388 10.668 2.026
v  9.388 9.002 2
v  6.61 9.002 2
v  10.5 17.418 2.026
v  13 10.668 2.026
v  16.342 12.328 2
v  15.414 11.568 2
v  15.656 11.766 2
v  19.752 12.896 2
v  19.094 12.992 2
v  19.03 13.002 2
v  23.204 9.436 2
v  20.36 9.832 2
v  23.138 8.99 2
v  23.28 9.932 2
v  23.156 10.794 2
v  22.786 11.568 2
v  20.004 10.654 2
v  22.202 12.202 2
v  21.434 12.65 2
v  16.71 12.63 2
v  16.582 5.98 2
v  20.662 6.164 2

# 0 UV coordinates

# 73 vertex normals
vn 0.933268 -0.35918 -3.99945e-17
vn 0.360476 -0.932768 0
vn 0.360476 -0.932768 -3.67445e-17
vn -0.356842 -0.934165 0
vn -0.662042 0.749467 0
vn -0.356605 -0.934255 0.000174917
vn 3.65557e-33 -1.97709e-32 1
vn 0 1 0
vn 0.67372 -0.738987 -4.95647e-17
vn 0.591807 -0.806079 -1.66759e-17
vn 0.587437 -0.809267 -0.00212053
vn 0.620966 -0.783838 0
vn 0.757045 -0.653363 -5.91272e-17
vn 0.757045 -0.653363 0
vn -0.081914 -0.996639 -5.366e-18
vn -0.0813615 -0.996685 0.000487214
vn -0.752001 0.659162 -7.57689e-17
vn -0.888624 0.458636 7.46084e-18
vn -0.751237 0.660032 0.00124686
vn -0.745928 0.666017 -0.00346887
vn -0.971924 0.235295 -4.02141e-17
vn 0 -1 0
vn -0.937749 0.347314 -2.15961e-16
vn -0.937749 0.347314 6.47884e-16
vn -0.937749 0.347314 -2.1405e-16
vn -0.937749 0.347314 0
vn 0 0 1
vn 1 0 0
vn -1 0 0
vn 0.937749 0.347314 0
vn 0.937749 0.347314 6.47884e-16
vn 0.937749 0.347314 0
vn -0.633824 0.773478 -0.000344619
vn -0.080852 -0.996725 0.00128836
vn -0.950053 0.312089 -6.74424e-17
vn -0.950053 0.312089 0
vn -0.633233 0.773961 -1.36504e-17
vn -0.633731 0.773553 -0.000201273
vn -0.888345 0.459177 -4.24967e-05
vn -0.888329 0.459207 4.66477e-17
vn 0.144369 0.989524 -0.000650304
vn 0.154296 0.988025 0
vn 0.624544 -0.780987 -0.00179777
vn 0.988827 -0.149062 -0.0012171
vn -0.93411 0.356985 0
vn -0.93411 0.356985 3.4794e-17
vn 0.904637 -0.426183 3.69146e-17
vn 0.989811 0.142387 -2.2015e-17
vn 0.989811 0.142387 -1.10075e-17
vn 0.902214 0.431289 4.97778e-17
vn 0.902214 0.431289 0
vn -0.917637 -0.397419 4.48889e-17
vn -0.917637 -0.397419 -4.48889e-17
vn 0.735514 0.677509 0
vn 0.50387 0.863779 0
vn 0.50387 0.863779 4.84053e-17
vn -0.634383 0.773019 -2.35838e-17
vn -0.15832 0.987388 -4.85078e-17
vn -0.634851 0.772634 0
vn -0.634851 0.772634 -2.6026e-16
vn -0.752242 0.658887 2.06985e-17
vn -0.079919 -0.996801 1.7503e-17
vn 0.585831 -0.810433 0
vn 0.625698 -0.780066 0
vn 0.989227 -0.146392 -5.13674e-18
vn 0.988463 -0.15146 8.30036e-18
vn 0.144716 0.989473 -2.31202e-17
vn -0.355999 -0.934486 0
vn 0.144877 0.98945 -0.00027584
vn 2.14354e-31 -1.94347e-34 -1
vn 0 0.0156044 -0.999878
vn 0 0 -1
vn 0 -0.733896 -0.679262

# Mesh '<STL_BINARY>' with 172 faces
g <STL_BINARY>
usemtl DefaultMaterial
f  1//1 2//1 3//1
f  1//1 4//1 2//1
f  5//2 3//2 6//2
f  1//3 3//2 5//2
f  5//4 6//4 7//4
f  8//5 9//5 10//5
f  11//5 9//5 8//5
f  5//6 7//6 12//6
f  13//7 14//7 15//7
f  14//7 13//7 16//7
f  16//7 13//7 17//7
f  17//7 13//7 18//7
f  16//7 17//7 19//7
f  19//7 17//7 8//7
f  17//7 11//7 8//7
f  11//7 17//7 20//7
f  11//7 20//7 21//7
f  11//7 21//7 22//7
f  23//7 22//7 21//7
f  23//7 21//7 24//7
f  23//7 12//7 22//7
f  25//7 5//7 23//7
f  23//7 5//7 12//7
f  23//7 24//7 26//7
f  26//7 24//7 27//7
f  26//7 27//7 28//7
f  28//7 27//7 29//7
f  28//7 29//7 30//7
f  30//7 29//7 31//7
f  25//7 1//7 5//7
f  25//7 4//7 1//7
f  32//7 4//7 25//7
f  4//7 33//7 34//7
f  33//7 4//7 32//7
f  17//8 35//8 36//8
f  18//8 35//8 17//8
f  20//9 36//9 37//9
f  17//9 36//9 20//9
f  20//10 37//10 38//10
f  20//11 38//11 21//11
f  24//12 39//12 40//12
f  27//13 24//13 40//13
f  27//13 40//13 41//14
f  34//15 42//15 43//15
f  34//16 43//16 44//16
f  45//17 46//17 16//17
f  46//18 47//18 16//18
f  19//19 45//19 16//19
f  19//20 48//20 45//20
f  49//21 50//21 15//21
f  49//21 15//21 14//21
f  15//22 50//22 51//22
f  15//22 51//22 13//22
f  52//22 53//22 54//22
f  53//22 55//22 56//22
f  54//22 53//22 56//22
f  57//23 53//23 52//23
f  58//24 57//23 59//24
f  58//24 53//23 57//23
f  60//25 55//25 53//23
f  58//24 60//25 53//23
f  61//26 60//25 58//24
f  62//27 54//27 63//27
f  54//27 62//27 59//27
f  59//27 62//27 64//27
f  54//27 57//27 52//27
f  57//27 54//27 59//27
f  59//27 64//27 65//27
f  65//27 64//27 66//27
f  64//28 62//28 67//28
f  67//28 62//28 68//28
f  56//29 63//29 54//29
f  56//29 69//29 63//29
f  63//22 68//22 62//22
f  63//22 69//22 68//22
f  65//30 66//30 70//30
f  59//31 65//30 58//31
f  58//31 65//30 70//30
f  70//30 66//30 71//30
f  58//31 70//30 61//32
f  64//22 67//22 66//22
f  66//22 67//22 71//22
f  35//28 13//28 51//28
f  18//28 13//28 35//28
f  32//33 72//33 33//33
f  34//34 44//34 4//34
f  73//35 34//35 33//35
f  73//35 42//36 34//35
f  33//37 74//37 73//37
f  33//38 72//38 74//38
f  16//39 47//39 14//39
f  47//40 49//40 14//40
f  25//41 75//41 76//41
f  25//42 76//42 77//42
f  21//43 39//43 24//43
f  31//44 29//44 78//44
f  79//45 11//45 22//45
f  79//45 9//46 11//45
f  29//47 27//47 41//47
f  29//47 41//47 80//47
f  30//48 31//48 81//48
f  30//48 81//48 82//49
f  28//50 30//50 82//50
f  28//50 82//50 83//51
f  84//52 22//52 12//52
f  84//52 79//53 22//52
f  26//54 28//54 83//54
f  26//54 83//54 85//54
f  26//55 85//55 23//55
f  23//55 85//55 86//56
f  32//57 87//57 72//57
f  32//58 77//58 87//58
f  25//58 77//58 32//58
f  19//59 10//59 88//59
f  8//60 10//59 19//59
f  88//61 48//61 19//61
f  4//62 44//62 2//62
f  21//63 38//63 89//63
f  21//64 89//64 39//64
f  78//65 29//65 80//65
f  31//66 78//66 81//66
f  23//67 86//67 75//67
f  12//68 7//68 84//68
f  23//69 75//69 25//69
f  73//70 43//70 42//70
f  43//70 73//70 74//70
f  43//70 74//70 72//70
f  43//70 72//70 44//70
f  44//70 72//70 87//70
f  44//70 87//70 2//70
f  2//70 87//70 77//70
f  2//70 77//70 3//70
f  3//70 77//70 6//70
f  6//70 77//70 76//70
f  6//70 76//70 75//70
f  6//70 75//70 7//70
f  7//70 75//70 86//70
f  7//70 86//70 84//70
f  84//70 86//70 79//70
f  79//70 86//70 89//70
f  89//70 86//70 39//70
f  39//70 86//70 85//70
f  89//70 9//70 79//70
f  38//70 9//70 89//70
f  9//70 36//70 10//70
f  36//70 9//70 37//70
f  37//70 9//70 38//70
f  51//70 48//70 36//70
f  36//70 48//70 88//70
f  36//70 88//70 10//70
f  51//70 36//70 35//70
f  51//70 45//70 48//70
f  51//70 46//70 45//70
f  49//70 51//70 50//70
f  51//70 49//70 47//70
f  51//70 47//70 46//70
f  39//70 85//70 40//70
f  40//70 85//70 41//70
f  41//70 85//70 83//70
f  41//70 83//70 80//70
f  80//70 83//70 82//70
f  80//70 82//70 78//70
f  78//70 82//70 81//70
f  67//71 69//71 56//71
f  69//71 67//71 68//71
f  60//72 56//72 55//72
f  56//72 60//72 61//72
f  56//72 61//72 67//72
f  67//72 61//72 70//72
f  67//72 70//72 71//72
f  62//73 56//73 67//73
f  56//73 62//73 63//73

