# File produced by Open Asset Import Library (http://www.assimp.sf.net)
# (assimp v3.1.187496374)

mtllib settlership.obj.mtl

# 88 vertex positions
v  0.477103 -3.84443 5.63993e-15
v  1.58745 -4.39043 5.63993e-15
v  0.473706 -4.39043 5.63993e-15
v  0.551738 -3.30355 5.63993e-15
v  0.696335 -2.77703 5.63993e-15
v  0.908419 -2.27389 5.63993e-15
v  1.18436 -1.80274 5.63993e-15
v  1.51944 -1.37164 5.63993e-15
v  1.90792 -0.987958 5.63993e-15
v  7.19954 -4.39043 5.63993e-15
v  2.34316 -0.658269 5.63993e-15
v  2.81771 -0.388211 5.63993e-15
v  3.32345 -0.182404 5.63993e-15
v  3.85172 -0.0443704 5.63993e-15
v  4.02452 0.00164945 5.63993e-15
v  4.3935 0.023529 5.63993e-15
v  15.1592 0.023529 5.63993e-15
v  7.19954 -12.4506 5.63993e-15
v  12.3905 -4.39043 5.63993e-15
v  19.079 -4.39043 5.63993e-15
v  15.701 -0.0443704 5.63993e-15
v  7.75341 -12.4506 5.63993e-15
v  8.61256 -12.3789 5.63993e-15
v  9.44794 -12.1657 5.63993e-15
v  10.2364 -11.8171 5.63993e-15
v  10.9562 -11.3425 5.63993e-15
v  11.5874 -10.7553 5.63993e-15
v  12.1125 -10.0715 5.63993e-15
v  12.5169 -9.31009 5.63993e-15
v  12.4697 -5.11829 5.63993e-15
v  12.7607 -5.92981 5.63993e-15
v  12.7896 -8.49221 5.63993e-15
v  12.9132 -6.77836 5.63993e-15
v  12.9229 -7.64044 5.63993e-15
v  16.2293 -0.182404 5.63993e-15
v  16.735 -0.388211 5.63993e-15
v  17.2096 -0.658269 5.63993e-15
v  17.6448 -0.987958 5.63993e-15
v  18.0333 -1.37164 5.63993e-15
v  18.3684 -1.80274 5.63993e-15
v  18.6443 -2.27389 5.63993e-15
v  18.8564 -2.77703 5.63993e-15
v  19.001 -3.30355 5.63993e-15
v  19.0756 -3.84443 5.63993e-15
v  7.75341 -12.4506 6
v  7.19954 -4.39043 6
v  7.19954 -12.4506 6
v  12.3905 -4.39043 6
v  8.61256 -12.3789 6
v  9.44794 -12.1657 6
v  10.2364 -11.8171 6
v  10.9562 -11.3425 6
v  11.5874 -10.7553 6
v  12.1125 -10.0715 6
v  12.5169 -9.31009 6
v  12.4697 -5.11829 6
v  12.7607 -5.92981 6
v  12.7896 -8.49221 6
v  12.9132 -6.77836 6
v  12.9229 -7.64044 6
v  15.1592 0.023529 6
v  19.079 -4.39043 6
v  4.3935 0.023529 6
v  15.701 -0.0443704 6
v  4.02452 0.00164945 6
v  3.85172 -0.0443704 6
v  3.32345 -0.182404 6
v  2.81771 -0.388211 6
v  2.34316 -0.658269 6
v  1.90792 -0.987958 6
v  1.51944 -1.37164 6
v  1.58745 -4.39043 6
v  1.18436 -1.80274 6
v  0.908419 -2.27389 6
v  0.477103 -3.84443 6
v  0.473706 -4.39043 6
v  0.551738 -3.30355 6
v  0.696335 -2.77703 6
v  16.2293 -0.182404 6
v  16.735 -0.388211 6
v  17.2096 -0.658269 6
v  17.6448 -0.987958 6
v  18.0333 -1.37164 6
v  18.3684 -1.80274 6
v  18.6443 -2.27389 6
v  18.8564 -2.77703 6
v  19.001 -3.30355 6
v  19.0756 -3.84443 6

# 0 UV coordinates

# 44 vertex normals
vn 0 0 -1
vn 0 0 1
vn -0 -1 -0
vn 0.994134 0.108154 0
vn 0.941299 0.337574 0
vn 0.984234 0.17687 0
vn 0.999936 0.0112717 0
vn 0.987971 -0.154639 0
vn 0.948669 -0.31627 0
vn 0.883118 -0.46915 0
vn 0.793132 -0.60905 0
vn 0.6812 -0.732097 0
vn 0.55042 -0.834888 0
vn 0.40441 -0.914578 0
vn 0.24721 -0.968962 0
vn 0.0831706 -0.996535 0
vn -1 0 0
vn 2.53197e-15 -1 0
vn -0.999981 0.00622149 0
vn -0.990614 0.136692 0
vn -0.964297 0.264824 0
vn -0.921481 0.388424 0
vn -0.862898 0.505378 0
vn -0.789551 0.613685 0
vn -0.702694 0.711492 0
vn -0.603814 0.797125 0
vn -0.494602 0.869119 0
vn -0.376928 0.926243 0
vn -0.252805 0.967517 0
vn -0.257356 0.966317 0
vn -0.0591937 0.998246 0
vn -2.61939e-16 1 0
vn 0.124355 0.992238 0
vn 0.252805 0.967517 0
vn 0.376928 0.926243 0
vn 0.494602 0.869119 0
vn 0.603814 0.797125 0
vn 0.702694 0.711492 0
vn 0.789551 0.613685 0
vn 0.862898 0.505378 0
vn 0.921481 0.388424 0
vn 0.964297 0.264824 0
vn 0.990614 0.136692 0
vn 0.999981 0.00622149 0

# Mesh 'settlership' with 172 faces
g settlership
usemtl DefaultMaterial
f  1//1 2//1 3//1
f  2//1 1//1 4//1
f  2//1 4//1 5//1
f  2//1 5//1 6//1
f  2//1 6//1 7//1
f  2//1 7//1 8//1
f  2//1 8//1 9//1
f  2//1 9//1 10//1
f  10//1 9//1 11//1
f  10//1 11//1 12//1
f  10//1 12//1 13//1
f  10//1 13//1 14//1
f  10//1 14//1 15//1
f  10//1 15//1 16//1
f  10//1 16//1 17//1
f  10//1 17//1 18//1
f  18//1 17//1 19//1
f  19//1 17//1 20//1
f  20//1 17//1 21//1
f  18//1 19//1 22//1
f  22//1 19//1 23//1
f  23//1 19//1 24//1
f  24//1 19//1 25//1
f  25//1 19//1 26//1
f  26//1 19//1 27//1
f  27//1 19//1 28//1
f  19//1 29//1 28//1
f  29//1 19//1 30//1
f  29//1 30//1 31//1
f  29//1 31//1 32//1
f  32//1 31//1 33//1
f  32//1 33//1 34//1
f  20//1 21//1 35//1
f  20//1 35//1 36//1
f  20//1 36//1 37//1
f  20//1 37//1 38//1
f  20//1 38//1 39//1
f  20//1 39//1 40//1
f  20//1 40//1 41//1
f  20//1 41//1 42//1
f  20//1 42//1 43//1
f  20//1 43//1 44//1
f  45//2 46//2 47//2
f  48//2 46//2 45//2
f  48//2 45//2 49//2
f  48//2 49//2 50//2
f  48//2 50//2 51//2
f  48//2 51//2 52//2
f  48//2 52//2 53//2
f  48//2 53//2 54//2
f  55//2 48//2 54//2
f  48//2 55//2 56//2
f  56//2 55//2 57//2
f  57//2 55//2 58//2
f  57//2 58//2 59//2
f  59//2 58//2 60//2
f  61//2 46//2 48//2
f  61//2 48//2 62//2
f  63//2 46//2 61//2
f  61//2 62//2 64//2
f  65//2 46//2 63//2
f  66//2 46//2 65//2
f  67//2 46//2 66//2
f  68//2 46//2 67//2
f  69//2 46//2 68//2
f  70//2 46//2 69//2
f  71//2 72//2 70//2
f  70//2 72//2 46//2
f  73//2 72//2 71//2
f  74//2 72//2 73//2
f  72//2 75//2 76//2
f  75//2 72//2 77//2
f  77//2 72//2 78//2
f  78//2 72//2 74//2
f  64//2 62//2 79//2
f  79//2 62//2 80//2
f  80//2 62//2 81//2
f  81//2 62//2 82//2
f  82//2 62//2 83//2
f  83//2 62//2 84//2
f  84//2 62//2 85//2
f  85//2 62//2 86//2
f  86//2 62//2 87//2
f  87//2 62//2 88//2
f  62//3 19//3 20//3
f  19//3 62//3 48//3
f  19//4 56//4 30//4
f  56//4 19//4 48//4
f  30//5 57//5 31//5
f  57//5 30//5 56//5
f  31//6 59//6 33//6
f  59//6 31//6 57//6
f  33//7 60//7 34//7
f  60//7 33//7 59//7
f  34//8 58//8 32//8
f  58//8 34//8 60//8
f  32//9 55//9 29//9
f  55//9 32//9 58//9
f  29//10 54//10 28//10
f  54//10 29//10 55//10
f  28//11 53//11 27//11
f  53//11 28//11 54//11
f  53//12 26//12 27//12
f  26//12 53//12 52//12
f  52//13 25//13 26//13
f  25//13 52//13 51//13
f  51//14 24//14 25//14
f  24//14 51//14 50//14
f  50//15 23//15 24//15
f  23//15 50//15 49//15
f  49//16 22//16 23//16
f  22//16 49//16 45//16
f  45//3 18//3 22//3
f  18//3 45//3 47//3
f  46//17 18//17 47//17
f  18//17 46//17 10//17
f  46//3 2//3 10//3
f  2//3 46//3 72//3
f  72//3 3//18 2//3
f  3//18 72//3 76//18
f  75//19 3//19 76//19
f  3//19 75//19 1//19
f  77//20 1//20 75//20
f  1//20 77//20 4//20
f  78//21 4//21 77//21
f  4//21 78//21 5//21
f  74//22 5//22 78//22
f  5//22 74//22 6//22
f  73//23 6//23 74//23
f  6//23 73//23 7//23
f  71//24 7//24 73//24
f  7//24 71//24 8//24
f  71//25 9//25 8//25
f  9//25 71//25 70//25
f  70//26 11//26 9//26
f  11//26 70//26 69//26
f  69//27 12//27 11//27
f  12//27 69//27 68//27
f  68//28 13//28 12//28
f  13//28 68//28 67//28
f  67//29 14//29 13//29
f  14//29 67//29 66//29
f  66//30 15//30 14//30
f  15//30 66//30 65//30
f  65//31 16//31 15//31
f  16//31 65//31 63//31
f  63//32 17//32 16//32
f  17//32 63//32 61//32
f  61//33 21//33 17//33
f  21//33 61//33 64//33
f  64//34 35//34 21//34
f  35//34 64//34 79//34
f  79//35 36//35 35//35
f  36//35 79//35 80//35
f  80//36 37//36 36//36
f  37//36 80//36 81//36
f  81//37 38//37 37//37
f  38//37 81//37 82//37
f  82//38 39//38 38//38
f  39//38 82//38 83//38
f  39//39 84//39 40//39
f  84//39 39//39 83//39
f  40//40 85//40 41//40
f  85//40 40//40 84//40
f  41//41 86//41 42//41
f  86//41 41//41 85//41
f  42//42 87//42 43//42
f  87//42 42//42 86//42
f  43//43 88//43 44//43
f  88//43 43//43 87//43
f  44//44 62//44 20//44
f  62//44 44//44 88//44

